<svg height="512pt" viewBox="0 -35 512.0001 512" width="512pt" xmlns="http://www.w3.org/2000/svg"><path d="m497.203125 93.628906c-.015625-.078125-.03125-.152344-.046875-.230468-1.722656-8.40625-3.445312-16.453126-5.066406-24.042969-5.496094-25.675781-10.242188-47.855469-10.242188-61.675781 0-4.242188-3.4375-7.679688-7.679687-7.679688h-41.027344c-4.242187 0-7.683594 3.4375-7.683594 7.679688 0 4.242187 3.441407 7.679687 7.683594 7.679687h33.675781c1.15625 14.707031 5.261719 33.890625 10.253906 57.210937 1.019532 4.761719 2.074219 9.710938 3.148438 14.808594h-448.441406c1.070312-5.101562 2.128906-10.050781 3.144531-14.808594 4.992187-23.320312 9.09375-42.503906 10.25-57.210937h357.277344c4.242187 0 7.679687-3.4375 7.679687-7.679687 0-4.242188-3.4375-7.679688-7.679687-7.679688h-364.628907c-4.242187 0-7.679687 3.4375-7.679687 7.679688 0 13.820312-4.742187 36-10.238281 61.675781-1.621094 7.582031-3.335938 15.613281-5.058594 24.011719-.019531.097656-.039062.195312-.058594.296874-9.003906 44.007813-18.035156 98.09375-13.636718 150.84375 7.875 94.59375 7.96875 155.875 7.96875 156.484376 0 2.53125 1.25 4.902343 3.339843 6.332031.78125.535156 19.570313 13.230469 57.527344 23.164062.652344.171875 1.308594.25 1.949219.25 3.410156 0 6.523437-2.285156 7.425781-5.738281 1.074219-4.101562-1.382813-8.296875-5.484375-9.371094-26.40625-6.910156-42.84375-15.234375-49.429688-18.980468-.171874-15.640626-1.25-72.464844-7.988281-153.414063-4.035156-48.386719 3.796875-98.601563 12.167969-140.496094h454.746094c8.375 41.894531 16.207031 92.109375 12.175781 140.496094-6.746094 80.957031-7.828125 137.78125-8 153.417969-14.992187 8.527344-81.117187 40.746094-202.855469 26.570312v-77.707031c26.382813-6.027344 47.792969-20.761719 62.808594-43.488281 2.339844-3.539063 1.367188-8.304688-2.171875-10.644532-3.539063-2.335937-8.304687-1.363281-10.644531 2.175782-17.402344 26.347656-43.878906 39.703125-78.683594 39.703125-34.8125 0-61.289062-13.355469-78.695312-39.703125-2.335938-3.539063-7.101563-4.511719-10.640626-2.175782-3.539062 2.339844-4.511718 7.105469-2.175781 10.644532 15.015625 22.722656 36.425781 37.457031 62.808594 43.488281v77.707031c-44.660156 5.207032-86.371094 4.730469-124.074219-1.429687-4.179687-.679688-8.136718 2.15625-8.816406 6.34375-.683594 4.183593 2.152344 8.132812 6.339844 8.816406 21.25 3.46875 43.6875 5.203125 67.140625 5.203125 21.855469 0 44.59375-1.507812 68.070312-4.519531 3.832031-.492188 6.699219-3.753907 6.699219-7.617188v-82.042969c4.339844.421876 8.785156.644532 13.34375.644532 4.554688 0 8.996094-.222656 13.332031-.640625v82.039062c0 3.863281 2.871094 7.125 6.703125 7.617188 24.746094 3.175781 47.324219 4.472656 67.683594 4.46875 43.605469 0 77.046875-5.9375 99.910156-12.050781 36.882813-9.863282 55.148438-22.210938 55.90625-22.734376 2.089844-1.429687 3.335938-3.800781 3.335938-6.332031 0-.605469.09375-61.824219 7.980468-156.480469 4.398438-52.765624-4.640624-106.863281-13.648437-150.878906zm0 0"/><path d="m220.339844 25.015625c-10.234375 0-18.558594 8.328125-18.558594 18.5625v15.265625c0 10.234375 8.324219 18.5625 18.558594 18.5625h71.3125c10.234375 0 18.5625-8.328125 18.5625-18.5625v-15.265625c0-10.234375-8.328125-18.5625-18.5625-18.5625zm74.515625 18.5625v15.265625c0 1.765625-1.4375 3.203125-3.203125 3.203125h-71.3125c-1.765625 0-3.199219-1.4375-3.199219-3.203125v-15.265625c0-1.765625 1.433594-3.203125 3.199219-3.203125h71.3125c1.765625 0 3.203125 1.4375 3.203125 3.203125zm0 0"/></svg>