<?xml version="1.0" encoding="iso-8859-1"?>
<!-- Generator: Adobe Illustrator 19.0.0, SVG Export Plug-In . SVG Version: 6.00 Build 0)  -->
<svg version="1.1" id="Layer_1" xmlns="http://www.w3.org/2000/svg" xmlns:xlink="http://www.w3.org/1999/xlink" x="0px" y="0px"
	 viewBox="0 0 484.164 484.164" style="enable-background:new 0 0 484.164 484.164;" xml:space="preserve">
<g>
	<g>
		<g>
			<path d="M219.042,117.572c-1.024,0-2.56,1.024-2.56,2.56l-4.096,54.272c0,1.024,1.024,2.56,2.56,2.56s2.56-1.024,2.56-2.56
				l4.096-54.272C221.602,119.108,220.578,117.572,219.042,117.572z"/>
			<path d="M221.602,76.612c-1.536,0-2.56,1.024-2.56,2.56l-1.024,16.896c0,1.024,1.024,2.56,2.56,2.56
				c1.536,0,2.56-1.024,2.56-2.56l1.024-16.896C224.162,78.148,223.138,76.612,221.602,76.612z"/>
			<path d="M222.626,63.812c-1.536,0-2.56,1.024-2.56,2.56v3.584c0,1.024,1.024,2.56,2.56,2.56c1.024,0,2.048-1.024,2.56-2.56
				v-3.584C225.186,65.348,224.162,63.812,222.626,63.812z"/>
			<path d="M245.666,335.684c2.048-0.512,4.096-1.024,6.144-1.024c1.536-0.512,2.56-1.536,2.048-3.072
				c-0.512-1.536-1.536-2.56-3.072-2.048c-2.048,0.512-3.584,0.512-5.632,1.024c-1.536,0.512-2.56,1.536-2.048,3.072
				C243.618,334.66,244.642,335.684,245.666,335.684z"/>
			<path d="M251.81,421.188c-2.56,0.512-4.608,1.024-6.656,1.536c-1.536,0.512-2.56,1.536-2.048,3.072
				c0.512,1.024,1.536,2.048,2.56,2.048c3.072-0.512,5.12-1.024,7.168-1.536c1.536-0.512,2.56-1.536,2.048-3.072
				C254.37,421.7,253.346,420.676,251.81,421.188z"/>
			<path d="M321.442,271.172h-1.35c0.535-1.593,0.838-3.308,0.838-5.12c0-2.06-0.384-3.998-1.068-5.768
				c3.898-1.45,6.7-5.205,6.7-9.592v-25.6c0-11.264-9.216-20.48-20.48-20.48h-0.512v-5.12c0-8.704-6.656-15.36-15.36-15.36h-0.363
				l-8.341-117.76c-0.911-12.752-9.523-23.473-21.504-27.128V8.004c0-2.048-1.536-4.096-3.072-4.608l-4.096-1.536
				c-7.68-2.56-15.872-2.56-23.04,0.512l-2.56,1.024c-2.048,0.512-3.072,2.56-3.072,4.608v30.465
				c-12.061,3.382-21.082,14.321-22.016,27.391l-8.378,118.272h-0.838c-8.704,0-15.36,6.656-15.36,15.36v5.146
				c-11.028,0.277-19.968,9.363-19.968,20.454v25.6c0,4.048,2.387,7.557,5.818,9.216c-0.779,1.867-1.21,3.939-1.21,6.144
				c0,1.812,0.303,3.527,0.838,5.12h-0.326c-5.632,0-10.24,4.608-10.24,10.24v20.48c0,11.264,9.216,20.48,20.48,20.48h15.36v99.84
				c0,6.656,4.096,12.8,10.752,14.848l1.536,0.384v9.856c0,19.968,16.384,36.864,36.864,36.864c2.56,0,5.12-2.048,5.12-5.12
				s-2.048-5.12-5.12-5.12c-14.336,0-26.624-11.776-26.624-26.624v-6.833c5.103,1.283,10.261,2.22,15.446,2.837l4.01,17.82
				c0.512,2.56,2.56,4.096,5.12,4.096h14.336c2.56,0,4.608-1.536,5.12-3.584l3.693-18.463c7.605-0.944,15.182-2.491,22.932-4.577
				l3.584-1.024c6.656-2.048,10.752-8.192,10.752-14.848V322.372h15.36c11.264,0,20.48-9.216,20.48-20.48v-20.48
				C331.682,275.78,327.074,271.172,321.442,271.172z M316.322,225.092v25.6H305.57h-14.848v-35.84h9.728h5.632
				C311.714,214.852,316.322,219.46,316.322,225.092z M285.602,214.852v35.84h-87.04v-35.84H285.602z M249.25,9.54l0.512,0.512
				V37.14c-5.063-0.665-10.258-0.768-15.36-0.294V9.54C239.522,8.004,244.642,8.004,249.25,9.54z M212.898,66.372
				c1.024-9.728,8.192-17.408,17.408-18.944h0.512c7.168-1.024,14.848-1.024,22.016,0l2.048,0.512
				c9.728,1.536,16.896,9.216,17.408,18.944l8.192,117.248h-76.288L212.898,66.372z M187.81,199.492c0-3.072,2.048-5.12,5.12-5.12
				h5.632h87.04h4.608c3.072,0,5.12,2.048,5.12,5.12v5.12H187.81V199.492z M167.842,225.092c0-5.632,4.608-10.24,10.24-10.24h4.608
				h10.752v35.84H177.57h-9.728V225.092z M172.45,266.052c0-3.072,2.048-5.12,5.12-5.12h128c3.072,0,5.12,2.048,5.12,5.12
				c0,3.072-2.048,5.12-5.12,5.12h-128C174.498,271.172,172.45,269.124,172.45,266.052z M177.57,281.412h128h15.872v15.36h-158.72
				v-15.36H177.57z M285.602,360.191c-0.691,0.805-1.531,1.529-2.56,2.117l-3.584,2.048c-22.528,12.8-48.64,17.408-73.728,12.8
				l-2.048-0.512c-1.978-0.283-3.798-1.348-5.12-2.846v-8.855c1.269,0.694,2.648,1.197,4.096,1.461l2.048,0.512
				c6.656,1.024,13.312,1.536,19.968,1.536c19.968,0,39.424-5.12,57.344-14.848l3.584-2.048l0,0V360.191z M198.562,380.304
				c1.269,0.694,2.648,1.198,4.096,1.461l2.048,0.512c6.656,1.024,13.312,1.536,19.968,1.536c19.968,0,39.424-5.12,57.344-14.848
				l3.584-2.048l0,0v8.635c-0.691,0.805-1.531,1.529-2.56,2.117l-3.584,2.048c-22.528,12.8-48.64,17.408-73.728,12.8l-2.048-0.512
				c-1.978-0.283-3.798-1.348-5.12-2.846V380.304z M285.602,344.831c-0.691,0.805-1.531,1.53-2.56,2.117l-3.584,2.048
				c-22.528,12.8-48.64,17.408-73.728,12.8l-2.048-0.512c-1.978-0.283-3.798-1.348-5.12-2.846v-8.855
				c1.269,0.694,2.648,1.197,4.096,1.461l2.048,0.512c6.656,1.024,13.312,1.536,19.968,1.536c19.968,0,39.424-5.12,57.344-14.848
				l3.584-2.048l0,0V344.831z M198.562,395.664c1.269,0.694,2.648,1.198,4.096,1.461l2.048,0.512
				c6.656,1.024,13.312,1.536,19.968,1.536c19.968,0,39.424-5.12,57.344-14.848l3.584-2.048l0,0v8.635
				c-0.691,0.805-1.531,1.53-2.56,2.117l-3.584,2.048c-22.528,12.8-48.64,17.408-73.728,12.8l-2.048-0.512
				c-1.978-0.283-3.798-1.348-5.12-2.846V395.664z M285.602,329.471c-0.691,0.805-1.531,1.53-2.56,2.117l-3.584,2.048
				c-22.528,12.8-48.64,17.408-73.728,12.8l-2.048-0.512c-1.978-0.283-3.798-1.348-5.12-2.846v-8.855
				c1.269,0.694,2.648,1.198,4.096,1.461l2.048,0.512c6.656,1.024,13.312,1.536,19.968,1.536c2.048,0,4.096-0.512,6.656,0
				c1.536,0,2.56-1.024,2.56-2.56s-1.024-2.56-2.56-2.56c-8.704,0.512-17.408,0-25.6-1.536l-2.048-0.512
				c-1.978-0.283-3.798-1.348-5.12-2.846v-5.346h87.04V329.471z M245.666,455.492h-6.144l-2.409-11.355
				c1.656,0.06,3.312,0.091,4.969,0.091c2.039,0,4.064-0.064,6.083-0.158L245.666,455.492z M285.602,422.212
				c0,2.56-1.536,4.608-3.584,5.12l-3.584,1.024c-24.576,7.168-50.176,7.168-74.24-0.512l-2.048-0.512
				c-2.048-1.024-3.584-3.072-3.584-5.12v-11.189c1.269,0.694,2.648,1.198,4.096,1.461l2.048,0.512
				c6.656,1.024,13.312,1.536,19.968,1.536c19.968,0,39.424-5.12,57.344-14.848l3.584-2.048l0,0v9.147
				c-0.691,0.805-1.531,1.529-2.56,2.117l-3.584,2.048c-6.656,3.584-13.312,6.656-19.968,8.704
				c-1.024,0.512-2.048,1.536-1.536,3.072c0.512,1.024,1.536,1.536,2.56,1.536c0,0,0.512-0.512,1.024,0.512
				c7.168-2.56,13.824-5.632,20.48-9.216l3.584-2.048V422.212z M311.202,312.132h-138.24c-5.632,0-10.24-4.608-10.24-10.24h158.72
				C321.442,307.524,316.834,312.132,311.202,312.132z"/>
		</g>
	</g>
</g>
<g>
</g>
<g>
</g>
<g>
</g>
<g>
</g>
<g>
</g>
<g>
</g>
<g>
</g>
<g>
</g>
<g>
</g>
<g>
</g>
<g>
</g>
<g>
</g>
<g>
</g>
<g>
</g>
<g>
</g>
</svg>
