<?xml version="1.0" encoding="iso-8859-1"?>
<!-- Generator: Adobe Illustrator 19.0.0, SVG Export Plug-In . SVG Version: 6.00 Build 0)  -->
<svg version="1.1" id="Layer_1" xmlns="http://www.w3.org/2000/svg" xmlns:xlink="http://www.w3.org/1999/xlink" x="0px" y="0px"
	 viewBox="0 0 509.287 509.287" style="enable-background:new 0 0 509.287 509.287;" xml:space="preserve">
<circle style="fill:#4EA1D3;" cx="254.644" cy="254.644" r="254.644"/>
<rect x="120.71" y="159.703" style="fill:#4EA1D3;" width="268.207" height="293.298"/>
<polygon style="fill:#F1F3F7;" points="461.478,153.6 254.644,31.873 47.809,153.6 "/>
<g>
	<polygon style="fill:#DDDEE6;" points="112.572,135.968 254.644,52.217 396.715,135.968 	"/>
	<rect x="64.424" y="153.6" style="fill:#DDDEE6;" width="380.44" height="25.091"/>
	<rect x="64.424" y="415.703" style="fill:#DDDEE6;" width="380.44" height="25.091"/>
</g>
<rect x="47.809" y="440.456" style="fill:#BDBDBE;" width="414.008" height="25.091"/>
<path style="fill:#D6D6D8;" d="M168.18,200.053H88.837c-5.425,0-10.172-4.408-10.172-10.172v-11.189h99.687v11.189
	C178.352,195.645,173.944,200.053,168.18,200.053z"/>
<path style="fill:#BDBDBE;" d="M153.6,221.415h-50.183c-4.408,0-8.138-3.73-8.138-8.138v-13.224h66.797v13.224
	C161.738,217.685,158.347,221.415,153.6,221.415z"/>
<path style="fill:#D6D6D8;" d="M88.837,394.342h79.343c5.425,0,10.172,4.408,10.172,10.172v11.189H78.665v-11.189
	C78.665,398.75,83.073,394.342,88.837,394.342z"/>
<path style="fill:#BDBDBE;" d="M103.417,372.98H153.6c4.408,0,8.138,3.73,8.138,8.138v13.224H95.279v-13.224
	C95.279,376.71,99.009,372.98,103.417,372.98z"/>
<rect x="104.095" y="221.415" style="fill:#F1F3F7;" width="49.166" height="151.566"/>
<path style="fill:#D6D6D8;" d="M294.315,200.053h-79.343c-5.425,0-10.172-4.408-10.172-10.172v-11.189h99.687v11.189
	C304.487,195.645,300.079,200.053,294.315,200.053z"/>
<path style="fill:#BDBDBE;" d="M279.735,221.415h-50.183c-4.408,0-8.138-3.73-8.138-8.138v-13.224h66.797v13.224
	C287.873,217.685,284.143,221.415,279.735,221.415z"/>
<path style="fill:#D6D6D8;" d="M214.972,394.342h79.343c5.425,0,10.172,4.408,10.172,10.172v11.189H204.8v-11.189
	C204.8,398.75,209.208,394.342,214.972,394.342z"/>
<path style="fill:#BDBDBE;" d="M229.552,372.98h50.183c4.408,0,8.138,3.73,8.138,8.138v13.224h-66.458v-13.224
	C221.415,376.71,225.144,372.98,229.552,372.98z"/>
<rect x="230.23" y="221.415" style="fill:#F1F3F7;" width="49.166" height="151.566"/>
<path style="fill:#D6D6D8;" d="M420.45,200.053h-79.343c-5.425,0-10.172-4.408-10.172-10.172v-11.189h99.687v11.189
	C430.623,195.645,426.215,200.053,420.45,200.053z"/>
<path style="fill:#BDBDBE;" d="M405.87,221.415h-50.183c-4.408,0-8.138-3.73-8.138-8.138v-13.224h66.797v13.224
	C414.008,217.685,410.278,221.415,405.87,221.415z"/>
<path style="fill:#D6D6D8;" d="M341.107,394.342h79.343c5.425,0,10.172,4.408,10.172,10.172v11.189h-99.687v-11.189
	C330.935,398.75,335.343,394.342,341.107,394.342z"/>
<path style="fill:#BDBDBE;" d="M355.687,372.98h50.183c4.408,0,8.138,3.73,8.138,8.138v13.224h-66.797v-13.224
	C347.55,376.71,350.94,372.98,355.687,372.98z"/>
<rect x="356.026" y="221.415" style="fill:#F1F3F7;" width="49.166" height="151.566"/>
</svg>
