<?xml version="1.0" encoding="iso-8859-1"?>
<!-- Generator: Adobe Illustrator 19.0.0, SVG Export Plug-In . SVG Version: 6.00 Build 0)  -->
<svg version="1.1" id="Layer_1" xmlns="http://www.w3.org/2000/svg" xmlns:xlink="http://www.w3.org/1999/xlink" x="0px" y="0px"
	 viewBox="0 0 455.745 455.745" style="enable-background:new 0 0 455.745 455.745;" xml:space="preserve">
<g>
	<g>
		<g>
			<path d="M446.976,63.265l-2.56-7.168c-2.048-6.144-7.68-10.24-14.336-10.24H409.6v-10.24c0-5.632-4.608-10.24-10.24-10.24h-9.728
				c-5.632,0-10.24,4.608-10.24,10.24v10.221c-0.514-0.081-1.035-0.082-1.536,0.019l-56.832,8.704
				c-39.936,6.144-80.384,9.728-120.32,10.752l-19.968,0.512c-4.608,0-8.704,0.512-12.8,0.512H166.4
				C73.216,70.433,0,146.721,0,240.417c0,41.556,14.898,81.958,41.705,113.314l-26.857,7.006c-3.584,1.024-6.144,4.096-7.168,7.68
				l-1.024,5.632c-3.584,17.408,1.024,35.328,12.8,48.64l3.584,4.096c2.048,2.56,4.608,3.584,7.68,3.584c1.024,0,1.536,0,2.56-0.512
				l86.016-23.04c0.536-0.107,1.025-0.332,1.462-0.636c17.078,5.476,35.022,8.316,53.322,8.316c4.096,0,8.192,0,12.288-0.512
				c82.944-5.632,156.672-80.384,161.792-162.816c1.368-26.441-2.963-52.875-12.961-76.786l42.657,9.714c0.512,0,0.512,0,1.024,0
				c0.171,0,0.341-0.026,0.512-0.047v10.287c0,5.632,4.608,10.24,10.24,10.24h9.728c5.632,0,10.24-4.608,10.24-10.24v-10.752h20.48
				c6.656,0,12.288-4.096,14.848-10.24l1.536-5.12C458.752,134.433,458.752,97.568,446.976,63.265z M30.72,420.128l-3.584-4.096
				c-9.728-10.752-13.824-25.6-10.752-39.936l1.024-5.632l31.966-8.339c1.925,1.969,3.895,3.899,5.922,5.779
				c14.874,13.712,31.652,24.565,49.654,32.341L30.72,420.128z M328.192,162.593c-49.027-11.12-100.049-17.24-150.605-18.38
				c-0.718-0.353-1.545-0.564-2.483-0.564c-25.185,0-48.123,9.552-65.392,25.232l-7.824-7.824c-2.048-2.048-5.12-2.048-7.168,0
				c-2.048,2.048-2.048,5.12,0,7.168l7.855,7.855c-14.224,15.9-23.291,36.51-24.585,59.217H66.56c-3.072,0-5.12,2.048-5.12,5.12
				c0,3.072,2.048,5.12,5.12,5.12h11.375c1.064,22.853,9.999,43.632,24.158,59.698l-7.374,7.374c-2.048,2.048-2.048,5.12,0,7.168
				c1.024,1.024,2.048,1.536,3.584,1.536c1.024,0,2.56,0,3.584-1.536l7.293-7.293c17.329,15.971,40.477,25.725,65.923,25.725
				c24.924,0,47.643-9.359,64.849-24.751l6.319,6.319c1.024,1.024,2.048,1.536,3.584,1.536s3.072,0,3.584-1.536
				c2.048-2.048,2.048-5.12,0-7.168l-6.288-6.289c14.719-16.209,24.033-37.414,25.121-60.783h9.327c3.072,0,5.12-2.048,5.12-5.12
				c0-3.072-2.048-5.12-5.12-5.12h-9.388c-0.884-15.409-5.378-30.279-13.14-43.52c-1.536-2.56-4.608-3.584-7.168-2.048
				c-2.56,1.536-3.584,4.608-2.048,7.168c7.19,11.684,11.223,24.945,12.102,38.4H250.88c-3.072,0-5.12,2.048-5.12,5.12
				c0,3.072,2.048,5.12,5.12,5.12h11.142c-1.079,20.508-9.321,39.117-22.208,53.445l-7.877-7.877c-2.048-2.048-5.12-2.048-7.168,0
				c-2.048,2.048-2.048,5.12,0,7.168l7.844,7.844c-15.402,13.599-35.584,21.852-57.508,21.852c-22.629,0-43.219-8.604-58.686-22.722
				l6.974-6.974c2.048-2.048,2.048-5.12,0-7.168c-2.048-2.048-5.12-2.048-7.168,0l-6.886,6.886
				c-12.318-14.19-20.112-32.417-21.153-52.454h9.095c3.072,0,5.12-2.048,5.12-5.12c0-3.072-2.048-5.12-5.12-5.12h-9.028
				c1.279-19.846,9.264-37.867,21.66-51.88l6.312,6.312c1.024,1.024,2.048,1.536,3.584,1.536c1.024,0,2.56-0.512,3.584-1.536
				c2.048-2.048,2.048-5.12,0-7.168l-6.339-6.339c15.076-13.534,34.839-21.896,56.368-22.312c0.649,0.309,1.385,0.491,2.195,0.491
				c49.579,0.501,99.154,6.404,147.296,17.202c11.649,24.598,16.507,51.567,15.008,78.542c-4.608,77.824-74.24,148.48-152.064,153.6
				c-46.08,3.072-89.6-12.288-123.392-43.52c-33.28-30.72-52.224-74.752-52.224-119.808c0-88.064,69.12-159.744,156.672-163.84
				h1.536c4.608,0,8.704,0,13.312-0.512l19.456-0.512c40.448-1.024,81.408-4.608,121.344-10.752l56.832-9.216v118.16
				L328.192,162.593z M399.872,194.337H389.12V35.617h10.752V194.337z M436.224,165.153l-1.536,5.12
				c-0.512,2.048-2.56,3.584-4.608,3.584H409.6V55.073h19.968c2.048,0,4.096,1.536,4.608,3.584l2.56,7.168
				C448,97.568,447.488,133.409,436.224,165.153z"/>
			<path d="M174.08,173.857c-36.864,0-66.56,29.696-66.56,66.56s29.696,66.56,66.56,66.56s66.56-29.696,66.56-66.56
				S210.944,173.857,174.08,173.857z M174.08,301.857c-33.792,0-61.44-27.648-61.44-61.44s27.648-61.44,61.44-61.44
				s61.44,27.648,61.44,61.44S207.872,301.857,174.08,301.857z"/>
			<path d="M341.504,74.017l-20.48,3.072c-1.536,0.512-2.048,1.536-2.048,3.072c0,1.024,1.536,2.048,2.56,2.048l20.992-3.072
				c1.536-0.512,2.048-1.536,2.048-3.072C344.064,74.529,343.04,74.017,341.504,74.017z"/>
			<path d="M291.84,81.697c-29.696,3.584-60.416,5.632-90.624,6.656l-19.968,0.512c-4.096,0-8.704,0.512-12.8,0.512h-1.536
				c-1.024,0-2.048,0-3.072,0c-1.536,0-2.56,1.024-2.56,2.56s1.024,2.56,2.56,2.56c1.024,0,2.048,0,4.096,0h1.536
				c4.096,0,8.704,0,12.8-0.512l19.456-0.512c30.208-1.024,60.928-3.072,91.136-6.656c1.024-0.512,2.048-1.536,2.048-3.072
				C294.4,82.721,293.376,81.697,291.84,81.697z"/>
			<path d="M28.672,238.881c-1.536,0-2.56,1.024-2.56,2.56c0,81.92,66.56,148.992,148.992,148.992
				c22.528,0,44.032-5.12,64.512-14.336c1.024-1.024,1.536-2.56,1.024-3.584c-1.024-1.024-2.56-1.536-3.584-1.024
				c-19.456,9.216-40.448,13.824-61.952,13.824c-79.36,0-143.872-64.512-143.872-143.872
				C31.232,239.905,30.208,238.881,28.672,238.881z"/>
			<path d="M266.24,358.688c0.512,0,1.024,0,1.536,0c6.656-5.632,13.312-12.288,19.456-18.944c1.024-1.024,1.024-2.56,0-3.584
				c-1.024-1.024-2.56-1.024-3.584,0c-5.632,6.656-12.288,12.288-18.944,17.92c-1.024,1.024-1.536,2.56-0.512,3.584
				C264.704,358.177,265.728,358.688,266.24,358.688z"/>
			<path d="M297.472,324.896c0.512,0,1.536-0.512,2.048-1.024c4.096-5.632,7.168-11.264,10.24-17.408
				c1.024-1.536,0-3.072-1.024-3.584c-1.536-1.024-3.072,0-3.584,1.024c-3.072,5.632-6.144,11.264-9.728,16.896
				c-1.024,1.024-0.512,2.56,0.512,3.584C296.448,324.896,296.96,324.896,297.472,324.896z"/>
			<path d="M242.176,170.785c-2.048-2.048-5.12-2.048-7.168,0c-2.048,2.048-2.048,5.12,0,7.168c1.536,1.536,3.072,3.072,4.608,4.608
				c1.024,1.024,2.048,1.536,3.584,1.536c1.024,0,2.56-0.512,3.584-0.512c2.048-2.048,2.56-5.12,0.512-7.168
				C245.76,174.369,244.224,172.321,242.176,170.785z"/>
			<path d="M193.876,235.273c-0.486-1.858-1.223-3.613-2.182-5.229l21.298-13.691c2.56-1.536,3.072-4.608,1.536-7.168
				s-4.608-3.072-7.168-1.536l-21.504,14.336c-0.457,0.274-0.825,0.611-1.152,0.971c-1.673-1.024-3.499-1.812-5.438-2.324
				l5.054-25.271c0.512-3.072-1.536-5.632-4.096-6.144c-3.072-0.512-5.632,1.536-6.144,4.096l-5.12,25.6
				c-0.099,0.592-0.1,1.165-0.023,1.708c-1.813,0.474-3.528,1.185-5.111,2.11l-13.809-20.714c-1.536-2.56-4.608-3.072-7.168-1.536
				c-2.56,1.536-3.072,4.608-1.536,7.168l14.336,21.504c0.265,0.265,0.564,0.528,0.889,0.775c-0.985,1.636-1.743,3.415-2.241,5.303
				l-25.271-5.054c-3.072-0.512-5.632,1.536-6.144,4.096c-0.512,3.072,1.536,5.632,4.096,6.144l25.6,5.12c0.512,0,0.512,0,1.024,0
				c0.228,0,0.446-0.027,0.665-0.051c0.523,2.029,1.346,3.935,2.426,5.673c-0.006,0.004-0.013,0.006-0.019,0.009l-21.504,14.336
				c-2.56,1.536-3.072,4.608-1.536,7.168c1.024,1.024,2.56,2.048,4.096,2.048c1.024,0,2.048-0.512,3.072-0.512l21.504-14.336
				c0.738-0.443,1.285-1.022,1.683-1.672c1.525,0.872,3.172,1.542,4.907,2l-5.054,25.271c-0.512,3.072,1.536,5.632,4.096,6.144
				c0.512,0,0.512,0,1.024,0c2.56,0,4.608-1.536,5.12-4.096l5.12-25.6c0.099-0.592,0.1-1.165,0.023-1.708
				c1.86-0.487,3.616-1.225,5.234-2.184l14.711,21.813c1.024,1.024,2.56,2.048,4.096,2.048c0.512,0,1.536-0.512,2.56-1.024
				c2.56-1.536,3.072-4.608,1.536-7.168l-14.336-21.504c-0.358-0.597-0.806-1.071-1.305-1.445c0.939-1.593,1.663-3.319,2.145-5.145
				l25.271,5.054c0.512,0,0.512,0,1.024,0c2.56,0,4.608-1.536,5.12-4.096c0.512-3.072-1.536-5.632-4.096-6.144l-25.6-5.12
				C194.992,235.198,194.419,235.196,193.876,235.273z M174.791,255.74c-0.466-0.052-0.921-0.052-1.355,0.006
				c-8.14-0.313-14.329-6.476-14.682-14.603c0.053-0.462,0.054-0.912-0.001-1.343c0.149-3.367,1.48-6.535,3.595-9.063
				c0.156-0.02,0.311-0.049,0.467-0.049c0.99-0.594,1.665-1.42,2.043-2.355c2.608-2.03,5.821-3.277,9.221-3.277
				c3.804,0,7.376,1.448,10.123,3.857c0.043,0.079,0.07,0.161,0.117,0.239c0.301,0.301,0.651,0.599,1.028,0.875
				c2.361,2.544,3.883,5.897,4.055,9.678c-0.052,0.463-0.052,0.914,0.005,1.345C189.083,248.748,182.917,255.369,174.791,255.74z"/>
		</g>
	</g>
</g>
<g>
</g>
<g>
</g>
<g>
</g>
<g>
</g>
<g>
</g>
<g>
</g>
<g>
</g>
<g>
</g>
<g>
</g>
<g>
</g>
<g>
</g>
<g>
</g>
<g>
</g>
<g>
</g>
<g>
</g>
</svg>
