<?xml version="1.0" encoding="iso-8859-1"?>
<!-- Generator: Adobe Illustrator 19.0.0, SVG Export Plug-In . SVG Version: 6.00 Build 0)  -->
<svg version="1.1" id="Layer_1" xmlns="http://www.w3.org/2000/svg" xmlns:xlink="http://www.w3.org/1999/xlink" x="0px" y="0px"
	 viewBox="0 0 414.72 414.72" style="enable-background:new 0 0 414.72 414.72;" xml:space="preserve">
<g>
	<g>
		<g>
			<path d="M402.271,168.448l-2.048-8.192c-1.536-6.144-6.144-11.264-12.288-13.312l-6.656-2.08v-4.576
				c0-42.496-32.768-76.288-74.752-78.848c-0.512,0-0.512,0-1.024,0h-3.072c-1.536,0-2.56,0.512-3.584,1.536
				c-5.34,2.427-9.293,7.619-9.689,13.824h-51.289c-0.512-8.714-7.465-15.36-16.334-15.36h-34.816V10.752
				c0-6.144-4.096-10.752-10.24-10.752h-10.752c-5.632,0-9.728,3.584-10.752,8.704l-10.752,61.952
				c-0.08,0.483-0.091,0.95-0.053,1.402c-23.525,13.65-39.371,39.095-39.371,68.23V179.2h-15.36v-46.08
				c0-3.072-2.048-5.12-5.12-5.12h-10.24c-8.704,0-15.36,6.656-15.36,15.36v5.12c0,0.512,0,0.512-0.512,0.512H38.751
				c-0.512,0-0.512,0-0.512-0.512v-5.12c0-8.704-6.656-15.36-15.36-15.36h-10.24c-3.072,0-5.12,2.048-5.12,5.12v143.36
				c0,3.072,2.048,5.12,5.12,5.12h14.848c8.704,0,15.36-6.656,15.36-15.36v-4.608c0-0.512,0-0.512,0.512-0.512h14.848
				c0.512,0,0.512,0,0.512,0.512v4.608c0,8.704,6.656,15.36,15.36,15.36h10.24c3.072,0,5.12-2.048,5.12-5.12V230.4h15.36v38.912
				c0,27.648,14.336,53.76,38.4,67.584c0.303,0.182,0.614,0.33,0.928,0.454l10.336,68.154c1.024,5.632,5.12,9.216,10.752,9.216
				h10.752c6.144,0,10.752-4.608,10.24-10.752v-56.7c0.828,0.568,1.867,0.892,3.072,0.892h32.256c8.87,0,15.823-6.646,16.334-15.36
				h51.289c0.396,6.205,4.349,11.397,9.689,13.824c1.024,1.024,2.048,1.536,3.584,1.536h3.072c0.512,0,1.024,0,1.536,0
				c12.685-0.783,24.549-4.5,34.917-10.483l5.531,26.867c1.024,5.632,5.632,9.216,10.752,9.216h12.288
				c6.144,0,10.752-4.608,10.752-10.752v-93.696v-2.56V265.6l5.632-1.408c6.656-2.048,11.776-7.168,13.312-13.312l1.536-5.632
				C408.927,220.16,408.927,193.536,402.271,168.448z M276.319,182.272c1.536,0,2.56-1.024,2.56-2.56V87.04h10.24v235.52h-51.2
				V87.04h35.84v92.672C273.759,181.248,274.783,182.272,276.319,182.272z M165.215,10.752c0-0.512,0-0.512,0.512-0.512h10.752
				c0.512,0,0.512,0,0.512,0.512v50.989c-7.506,0.629-14.712,2.306-21.474,4.893L165.215,10.752z M79.199,271.36h-5.12
				c-3.072,0-5.12-2.048-5.12-5.12v-4.608c0-6.144-4.608-10.752-10.752-10.752H43.359v-37.888c0-1.536-1.024-2.56-2.56-2.56
				c-1.536,0-2.56,1.024-2.56,2.56v39.099c-3.411,1.758-5.632,5.277-5.632,9.541v4.608c0,3.072-2.048,5.12-5.12,5.12h-9.728V138.24
				h5.12c3.072,0,5.12,2.048,5.12,5.12v4.608c0,6.144,4.608,10.752,10.752,10.752h19.456c0.174,0,0.341-0.017,0.512-0.024v23.576
				c0,1.536,1.024,2.56,2.56,2.56s2.56-1.024,2.56-2.56v-25.055c3.116-1.837,5.12-5.205,5.12-9.249v-4.608
				c0-3.072,2.048-5.12,5.12-5.12h5.12v46.08v40.96V271.36z M89.439,220.16v-30.72h15.36v30.72H89.439z M227.679,331.776
				c0,3.584-2.56,6.144-6.144,6.144h-32.256c-1.205,0-2.244,0.324-3.072,0.892V325.12c0-3.072-2.048-5.12-5.12-5.12
				c-3.072,0-5.12,2.048-5.12,5.12v78.848c0,0.512,0,0.512-0.512,0.512h-10.752c0,0-0.512,0-0.512-0.512l-16.384-108.032
				c0-2.56-2.56-4.608-5.632-4.096c-2.56,0-4.608,3.072-4.096,5.632l3.969,26.174c-16.93-12.853-27.009-32.986-27.009-54.334V225.28
				v-40.96v-44.032c0-37.888,30.72-68.608,68.608-68.608h37.888c3.584,0,6.144,2.56,6.144,6.144v4.096v245.76V331.776z
				 M304.991,337.92c-3.072-0.512-5.632-3.072-5.632-6.144v-4.096V81.92v-4.096c0-3.072,2.56-5.632,5.632-6.144
				c36.864,1.536,66.048,31.232,66.048,68.608v126.464v2.56c0,22.243-10.338,41.763-26.477,54.25
				c-0.049,0.008-0.098,0.012-0.147,0.022c-1.685,0.281-2.904,1.334-3.581,2.648C330.551,333.141,318.275,337.366,304.991,337.92z
				 M371.039,362.496c0,0.512,0,0.512-0.512,0.512h-12.288c0,0-0.512,0-0.512-0.512l-6.413-31.147
				c7.97-6.272,14.682-14.052,19.725-22.938V362.496z M391.519,242.688l-1.536,5.632c-1.024,3.072-3.072,5.12-6.144,6.144
				l-2.56,0.683v-99.435l3.072,0.96c2.56,1.024,4.608,3.072,5.632,6.144l2.048,8.192
				C398.687,195.584,398.175,218.112,391.519,242.688z"/>
			<path d="M276.319,240.128c-1.536,0-2.56,1.024-2.56,2.56v3.072c0,1.536,1.024,2.56,2.56,2.56s2.56-1.024,2.56-2.56v-3.072
				C278.879,241.152,277.855,240.128,276.319,240.128z"/>
			<path d="M273.759,227.84c0,1.536,1.024,2.56,2.56,2.56s2.56-1.536,2.56-2.56v-36.864c0-1.536-1.024-2.56-2.56-2.56
				s-2.56,1.024-2.56,2.56V227.84z"/>
			<path d="M250.719,273.92c-1.536,0-2.56,1.024-2.56,2.56v33.28c0,1.536,1.024,2.56,2.56,2.56c1.536,0,2.56-1.536,2.56-2.56v-33.28
				C253.279,274.944,252.255,273.92,250.719,273.92z"/>
			<path d="M250.719,254.976c-1.536,0-2.56,1.024-2.56,2.56v3.584c0,1.536,1.024,2.56,2.56,2.56c1.536,0,2.56-1.536,2.56-2.56
				v-3.584C253.279,256,252.255,254.976,250.719,254.976z"/>
			<path d="M61.279,194.56c-1.536,0-2.56,1.024-2.56,2.56v24.576c0,1.536,1.024,2.56,2.56,2.56s2.56-1.024,2.56-2.56V197.12
				C63.839,195.584,62.815,194.56,61.279,194.56z"/>
			<path d="M40.799,186.368c-1.536,0-2.56,1.024-2.56,2.56v9.216c0,1.536,1.024,2.56,2.56,2.56c1.536,0,2.56-1.536,2.56-2.56v-9.216
				C43.359,187.392,42.335,186.368,40.799,186.368z"/>
			<path d="M138.591,108.032c0.512,0,1.024,0,1.536-0.512c13.312-12.8,30.72-19.968,49.152-19.968h11.264
				c1.536,0,2.56-1.024,2.56-2.56c0-1.536-1.024-2.56-2.56-2.56h-11.264c-19.456,0-38.4,7.168-52.736,20.992
				c-1.024,1.024-1.024,2.56,0,3.584C137.055,107.52,138.079,108.032,138.591,108.032z"/>
			<path d="M201.055,111.616h-11.264c-19.456,0-37.888,6.144-52.224,17.408c-1.024,1.024-1.536,2.56-0.512,3.584
				c0.512,0.512,1.536,1.024,2.048,1.024c0.512,0,1.024,0,1.536-0.512c13.312-10.752,30.72-16.384,49.152-16.384h11.264
				c1.536,0,2.56-1.024,2.56-2.56S202.591,111.616,201.055,111.616z"/>
			<path d="M201.055,138.24h-11.264c-19.968,0-38.912,4.096-52.736,11.264c-1.024,1.024-1.536,2.56-1.024,3.584
				c0,1.024,1.024,1.536,2.048,1.536c0.512,0,0.512,0,1.536,0c13.312-7.168,31.232-11.264,50.176-11.264h11.264
				c1.536,0,2.56-1.024,2.56-2.56C203.615,139.264,202.591,138.24,201.055,138.24z"/>
			<path d="M201.055,168.96h-11.264c-19.456,0-37.888,1.536-51.712,4.608c-1.536,0.512-2.56,1.536-2.048,3.072
				c0.512,1.024,1.536,2.048,2.56,2.048h0.512c13.824-3.072,31.744-4.608,50.688-4.608h11.264c1.536,0,2.56-1.024,2.56-2.56
				S202.591,168.96,201.055,168.96z"/>
			<path d="M201.055,286.208h-11.264c-18.944,0-36.352-6.144-49.664-16.896c-1.024-0.512-2.56-0.512-3.584,0.512
				c-0.512,1.024-0.512,2.56,0.512,3.584c14.336,11.776,32.768,17.92,52.736,17.92h11.264c1.536,0,2.56-1.024,2.56-2.56
				C203.615,287.232,202.591,286.208,201.055,286.208z"/>
			<path d="M189.791,266.24h11.264c1.536,0,2.048-1.024,2.048-2.56c0-1.536-1.024-2.56-2.56-2.56h-11.264
				c-18.944,0-36.864-4.096-50.176-11.264c-1.536-0.512-3.072,0-3.584,1.024c-0.512,1.536,0,3.072,1.536,3.584
				C151.391,262.144,169.823,266.24,189.791,266.24z"/>
			<path d="M201.055,230.4h-11.264c-18.944,0-36.864-1.536-50.688-4.608c-1.536,0-2.56,0.512-3.072,2.048
				c0,1.536,0.512,2.56,2.048,3.072c13.824,3.072,32.256,4.608,51.712,4.608h11.264c1.536,0,2.56-1.024,2.56-2.56
				S202.591,230.4,201.055,230.4z"/>
			<path d="M201.055,199.68h-62.464c-1.536,0-2.56,1.024-2.56,2.56c0,1.536,1.024,2.56,2.56,2.56h62.464
				c1.536,0,2.56-1.024,2.56-2.56C203.615,200.704,202.591,199.68,201.055,199.68z"/>
			<path d="M314.207,88.576c14.848,2.048,27.648,8.704,38.4,18.944c0.512,0.512,1.024,0.512,1.536,0.512
				c0.512,0,1.536,0,2.048-0.512c1.024-1.024,1.024-2.56,0-3.584c-11.264-11.264-25.6-17.92-40.96-20.48
				c-1.536-0.512-3.072,0.512-3.072,2.048C311.647,87.04,312.671,88.576,314.207,88.576z"/>
			<path d="M355.679,293.888c-1.024-1.024-2.56-1.024-3.584,0c-10.24,10.24-23.552,16.896-37.888,18.944
				c-1.536,0.512-2.048,1.536-2.048,3.072c0,1.024,1.536,2.048,2.56,2.048c15.872-2.56,29.696-9.728,40.96-20.48
				C356.703,296.448,356.703,294.912,355.679,293.888z"/>
			<path d="M313.695,116.736c14.336,2.048,27.648,7.168,38.4,15.872c0.512,0.512,1.024,0.512,1.536,0.512
				c1.024,0,1.536-0.512,2.56-1.024c1.024-1.024,0.512-2.56-0.512-3.584c-11.264-9.216-25.6-14.848-40.96-16.896
				c-1.536-0.512-3.072,0.512-3.072,2.048C311.135,115.2,312.159,116.736,313.695,116.736z"/>
			<path d="M355.679,150.528c-11.776-6.144-26.112-9.728-41.472-11.264c-1.024,0-2.56,1.024-2.56,2.56c0,1.024,1.024,2.56,2.56,2.56
				c14.848,1.536,28.672,5.12,39.424,10.752c0,0.512,0.512,0.512,1.024,0.512c1.024,0,2.048-0.512,2.048-1.536
				C357.215,152.576,356.703,151.04,355.679,150.528z"/>
			<path d="M354.655,172.544c-11.264-2.56-25.088-4.096-39.936-4.608c-1.536,0-2.56,1.024-2.56,2.56s1.024,2.56,2.56,2.56
				c14.848,0.512,28.16,2.048,38.912,4.608h0.512c1.024,0,2.048-1.024,2.56-2.048C356.703,174.08,356.191,173.056,354.655,172.544z"
				/>
			<path d="M314.207,291.84c15.872-2.048,30.208-8.192,40.96-16.896c1.024-1.024,1.536-2.56,0.512-3.584s-2.56-1.536-3.584-0.512
				c-10.752,8.192-24.064,13.824-38.4,15.872c-1.024,0.512-2.048,1.536-2.048,3.072C311.647,290.816,313.183,291.84,314.207,291.84z
				"/>
			<path d="M353.631,247.808c-10.752,5.632-24.064,9.728-38.912,10.752c-1.536,0-2.56,1.024-2.56,2.56c0,1.536,1.024,2.56,2.56,2.56
				c15.872-1.536,29.696-5.12,41.472-11.264c1.024-1.024,1.536-2.56,1.024-3.584C356.191,247.808,354.655,247.296,353.631,247.808z"
				/>
			<path d="M314.207,235.52c15.36-0.512,29.184-2.048,40.448-4.608c1.536-0.512,2.56-1.536,2.048-3.072
				c-0.512-1.536-1.536-2.56-3.072-2.048c-10.752,2.56-24.576,4.096-39.424,4.608c-1.536,0-2.56,1.024-2.56,2.56
				S312.671,235.52,314.207,235.52z"/>
			<path d="M314.719,199.68c-1.024,0-2.56,1.024-2.56,2.56c0,1.536,1.024,2.56,2.56,2.56h39.424c1.536,0,2.56-1.024,2.56-2.56
				c0-1.536-1.024-2.56-2.56-2.56H314.719z"/>
		</g>
	</g>
</g>
<g>
</g>
<g>
</g>
<g>
</g>
<g>
</g>
<g>
</g>
<g>
</g>
<g>
</g>
<g>
</g>
<g>
</g>
<g>
</g>
<g>
</g>
<g>
</g>
<g>
</g>
<g>
</g>
<g>
</g>
</svg>
