<?xml version="1.0" encoding="iso-8859-1"?>
<!-- Generator: Adobe Illustrator 19.0.0, SVG Export Plug-In . SVG Version: 6.00 Build 0)  -->
<svg version="1.1" id="Layer_1" xmlns="http://www.w3.org/2000/svg" xmlns:xlink="http://www.w3.org/1999/xlink" x="0px" y="0px"
	 viewBox="0 0 455.68 455.68" style="enable-background:new 0 0 455.68 455.68;" xml:space="preserve">
<g>
	<g>
		<g>
			<path d="M340.48,281.6h-25.6V256H320c3.072,0,5.12-2.048,5.12-5.12v-5.12c0-11.264-9.216-20.48-20.48-20.48h-8.346
				c5.473-9.256,8.346-19.826,8.346-30.72V87.04c0-27.136-17.92-51.2-44.032-58.88c-1.536-2.048-3.584-7.168-4.608-10.752
				C252.416,7.68,249.344,0,243.2,0s-9.216,7.68-12.8,17.408c-1.536,3.584-3.584,9.216-4.608,10.752
				c-26.112,7.68-44.032,31.744-44.032,58.88v107.52c0,10.682,2.973,21.361,8.378,30.72h-8.378c-11.264,0-20.48,9.216-20.48,20.48
				v5.12c0,3.072,2.048,5.12,5.12,5.12h5.12v25.6h-25.6c-14.336,0-25.6,11.264-25.6,25.6h-25.6c-3.072,0-5.12,2.048-5.12,5.12
				c0,3.072,2.048,5.12,5.12,5.12h35.84h15.36h25.644c-0.014,0.171-0.044,0.334-0.044,0.512v35.84c0,0.512,0.512,1.024,0.512,1.536
				l7.68,22.016c2.048,6.656,7.168,11.776,14.336,14.336l6.144,1.536c0.694,0.18,1.395,0.338,2.092,0.511
				c-0.014,0.172-0.044,0.335-0.044,0.513v51.2c0,3.072,2.048,5.12,5.12,5.12c3.072,0,5.12-2.048,5.12-5.12v-49.497
				c5.082,0.952,10.208,1.687,15.36,2.176v42.201c0,8.704,6.656,15.36,15.36,15.36h20.48c8.704,0,15.36-6.656,15.36-15.36v-45.444
				c1.542-0.358,3.079-0.736,4.608-1.148l9.216-2.56c6.656-2.048,11.776-6.656,13.824-13.312l7.68-23.04
				c0.512-0.512,0.512-1.024,0.512-1.536v-35.84h40.96c5.632,0,10.24-4.608,10.24-10.24C366.08,292.864,354.816,281.6,340.48,281.6z
				 M228.864,37.888c4.608-1.024,7.168-6.656,10.752-16.384c1.024-2.56,2.56-6.144,3.584-8.704c1.024,2.56,2.56,6.144,3.072,8.704
				c4.096,9.728,6.144,14.848,10.752,16.384c16.258,4.537,28.877,16.895,34.37,32.119c-14.364-4.322-80.442-3.941-96.486,0.241
				C200.33,54.913,212.901,42.449,228.864,37.888z M192,194.56V87.04c0-3.59,0.394-7.127,1.136-10.563
				c0.134-0.062,0.259-0.133,0.4-0.189l1.536-0.512c16.384-6.144,78.848-6.144,95.232-0.512l2.56,1.024
				c0.134,0.027,0.253,0.081,0.381,0.119C294,79.865,294.4,83.426,294.4,87.04v107.52c0,11.344-3.336,21.734-9.988,30.72h-11.265
				l-3.323-22.016c-0.387-3.873-2.827-6.864-6.208-8.092c0.039-0.194,0.064-0.396,0.064-0.612v-51.2
				c0-0.463-0.103-0.872-0.275-1.228c3.205-1.735,5.395-5.13,5.395-9.012V92.16c0-5.632-4.608-10.24-10.24-10.24
				c-5.632,0-10.24,4.608-10.24,10.24v40.96c0,5.632,4.608,10.24,10.24,10.24v51.2h-10.24v-20.48c0-1.536-1.024-2.56-2.56-2.56
				s-2.56,1.024-2.56,2.56v20.48h-10.24v-48.64c0-1.536-1.024-2.56-2.56-2.56c-1.536,0-2.56,1.024-2.56,2.56v48.64h-1.024
				c-5.12,0-9.216,3.584-10.24,8.704l-3.323,22.016H202.37C195.463,216.178,192,205.618,192,194.56z M260.096,199.68
				c2.56,0,4.608,2.048,5.12,4.608l3.072,20.992h-49.664l3.072-20.992c0.512-2.56,2.56-4.608,5.12-4.608H260.096z M258.56,140.8
				c-3.072,0-5.12-2.048-5.12-5.12V89.6c0-3.072,2.048-5.12,5.12-5.12c3.072,0,5.12,2.048,5.12,5.12v46.08
				C263.68,138.752,261.632,140.8,258.56,140.8z M181.76,235.52h122.88c5.632,0,10.24,4.608,10.24,10.24h-5.12H176.64h-5.12
				C171.52,240.128,176.128,235.52,181.76,235.52z M181.76,256h122.88v25.6H181.76V256z M268.8,422.4v17.92
				c0,3.072-2.048,5.12-5.12,5.12H243.2c-3.072,0-5.12-2.048-5.12-5.12v-41.553c1.536,0.046,3.072,0.081,4.608,0.081
				c8.748,0,17.494-0.62,26.112-1.98V422.4z M297.472,374.272c-1.024,3.072-3.584,5.632-7.168,6.656l-9.216,2.56
				c-25.6,6.656-52.736,6.656-78.336-0.512l-6.144-1.536c-3.584-1.024-6.144-3.584-7.168-7.168l-4.705-13.173
				c11.917,4.026,35.693,7.029,58.977,7.029c23.04,0,45.568-3.072,56.32-6.656l1.803-0.601L297.472,374.272z M304.64,352.256
				l-0.494,1.518c-0.738,0.677-1.598,1.228-2.578,1.555l-3.072,1.024c-29.696,10.24-83.456,9.728-112.64-0.512l-2.048-0.512
				c-0.485-0.162-0.934-0.39-1.364-0.646l-0.684-1.914v-34.816c0-0.178-0.03-0.341-0.044-0.512H304.64V352.256z M145.92,307.2
				h-15.36c0-8.704,6.656-15.36,15.36-15.36h30.72h133.12h30.72c8.704,0,15.36,6.656,15.36,15.36H145.92z"/>
			<path d="M256,409.6c-7.168,0-12.8,5.632-12.8,12.8c0,7.168,5.632,12.8,12.8,12.8c7.168,0,12.8-5.632,12.8-12.8
				C268.8,415.232,263.168,409.6,256,409.6z M256,430.08c-4.096,0-7.68-3.584-7.68-7.68s3.584-7.68,7.68-7.68
				c4.096,0,7.68,3.584,7.68,7.68S260.096,430.08,256,430.08z"/>
			<path d="M230.4,138.24c1.536,0,2.56-1.024,2.56-2.56v-2.56c0-1.536-1.024-2.56-2.56-2.56c-1.536,0-2.56,1.024-2.56,2.56v2.56
				C227.84,137.216,228.864,138.24,230.4,138.24z"/>
			<path d="M245.76,166.4c1.536,0,2.56-1.536,2.56-2.56v-5.12c0-1.536-1.024-2.56-2.56-2.56s-2.56,1.024-2.56,2.56v5.12
				C243.2,165.376,244.224,166.4,245.76,166.4z"/>
		</g>
	</g>
</g>
<g>
</g>
<g>
</g>
<g>
</g>
<g>
</g>
<g>
</g>
<g>
</g>
<g>
</g>
<g>
</g>
<g>
</g>
<g>
</g>
<g>
</g>
<g>
</g>
<g>
</g>
<g>
</g>
<g>
</g>
</svg>
