<svg height="512pt" viewBox="-10 0 512 512" width="512pt" xmlns="http://www.w3.org/2000/svg"><path d="m491.988281 368.675781c-1.925781-10.511719-4.652343-25.363281-7.074219-38.464843-.9375-5.085938-4.308593-9.402344-9.019531-11.539063-1.851562-.84375-3.824219-1.292969-5.800781-1.386719-14.542969-117.925781-55.019531-212.722656-55.429688-213.679687-.382812-.882813-.925781-1.6875-1.605468-2.367188-19.300782-19.300781-44.738282-33.386719-63.355469-42.046875 1.683594-5.132812 2.539063-9.71875 2.539063-13.730468 0-21.320313-18.066407-31.84375-33.226563-36.917969-17.183594-5.746094-40.988281-8.542969-72.78125-8.542969s-55.601563 2.796875-72.78125 8.546875c-27.464844 9.191406-33.226563 25.148437-33.226563 36.914063 0 4.011718.855469 8.597656 2.539063 13.734374-5.265625 2.449219-10.511719 5.066407-15.613281 7.820313-3.695313 1.992187-5.078125 6.605469-3.085938 10.300781 1.375 2.546875 3.992188 3.996094 6.699219 3.996094 1.21875 0 2.453125-.292969 3.601563-.910156 4.695312-2.53125 9.515624-4.945313 14.359374-7.207032 6.003907 11.796876 15.164063 25.660157 27.457032 41.515626 6.222656 8.023437 15.613281 12.617187 25.773437 12.617187h.125c10.242188-.039063 19.679688-4.726563 25.898438-12.863281l1.535156-2.011719c18.546875 20.746094 48.828125 62.777344 55.730469 93.578125 6.792968 30.316406.84375 60.132812-12.714844 64.78125h-13.980469c-4.53125-8.246094-13.304687-13.851562-23.363281-13.851562h-31.105469c-10.058593 0-18.828125 5.601562-23.359375 13.851562h-32.332031c-.003906 0-.007813 0-.015625 0-1.835938-4.136719-4.960938-15.351562-5.789062-44.542969-.609376-21.421875.363281-41.597656.371093-41.800781.003907-.066406 0-.136719 0-.203125.003907-.058594.011719-.109375.011719-.167969 0-42.257812-30.042969-68.148437-45.644531-78.742187 3.699219-3.199219 7.714843-6.355469 12.011719-9.4375 3.410156-2.445313 4.195312-7.199219 1.75-10.609375-2.449219-3.414063-7.203126-4.195313-10.613282-1.75-7.914062 5.675781-15.003906 11.625-21.058594 17.683594-.679687.679687-1.226562 1.480468-1.605468 2.363281-.414063.957031-40.90625 95.789062-55.429688 213.679687-1.980468.09375-3.953125.546875-5.804687 1.386719-4.710938 2.140625-8.082031 6.453125-9.023438 11.542969-2.417969 13.101562-5.144531 27.949218-7.070312 38.464844-2.285157 12.472656 3.714843 24.808593 14.925781 30.695312 11.65625 6.125 30.753906 13.363281 55.867188 13.359375.375 0 .753906 0 1.132812-.003906 13.976562-.121094 25.816406-10.230469 28.148438-24.035157l6.089843-36.074218c.808594-4.78125-.578125-9.59375-3.804687-13.203125-.625-.699219-1.3125-1.3125-2.03125-1.878907l27.109375-98.003906c1.0625 18.382813 3.691406 36.929688 11.019531 44.257813.558594.558593 1.183594 1.011719 1.847656 1.359375v31.023437c-.503906.261719-.988281.582031-1.433594.96875-18.167968 15.664063-25.890624 61.046875-33.355468 104.933594-4.375 25.6875-8.894532 52.25-14.464844 61.226563-1.300781 2.097656-1.503906 4.699218-.539062 6.972656.960937 2.273437 2.964843 3.9375 5.375 4.464844.789062.175781 79.675781 17.257812 149.871093 17.257812 70.1875 0 149.070313-17.082031 149.859375-17.257812 2.410156-.527344 4.417969-2.191407 5.378906-4.464844.960938-2.277344.757813-4.875-.542968-6.972656-5.570313-8.976563-10.089844-35.539063-14.460938-61.226563-7.09375-41.695313-14.425781-84.71875-30.71875-102.347656v-38.640625c3.605469-5.285156 7.234375-15.878906 8.777344-41.613282l11.1875 40.4375c1.117188 4.046876 5.304688 6.421876 9.355469 5.300782 4.046875-1.117188 6.421875-5.308594 5.300781-9.355469l-25.652344-92.734375c.179688-13.160156 4-25.6875 11.386719-37.253906 8.675781-13.628906 20.453125-23.042969 27.890625-28.097656 9.988281 25.40625 39.878906 107.367187 51.421875 204.902343-19.292969 9.882813-37.472656 11.71875-48.871094 11.609375-.042969-.128906-.089843-.257812-.125-.390625l-8.042969-29.074219c-1.117187-4.050781-5.300781-6.425781-9.355468-5.304687-4.046875 1.121094-6.421875 5.308594-5.300782 9.355469l7.929688 28.671875c-.71875.566406-1.40625 1.179687-2.027344 1.875-3.226562 3.613281-4.613281 8.425781-3.808594 13.203125l6.09375 36.074218c2.332032 13.804688 14.167969 23.914063 28.148438 24.035157.378906.003906.753906.003906 1.128906.003906 25.113282 0 44.210938-7.234375 55.871094-13.359375 11.210938-5.886719 17.207031-18.226562 14.925781-30.699219zm-289.964843-256.558593c-.019532 0-.042969 0-.0625 0-5.429688 0-10.4375-2.449219-13.757813-6.726563-20.828125-26.855469-32.769531-48.699219-32.769531-59.929687 0-25.003907 49.378906-30.253907 90.800781-30.253907s90.800781 5.25 90.800781 30.253907c0 11.230468-11.941406 33.074218-32.769531 59.929687-3.316406 4.277344-8.328125 6.726563-13.753906 6.726563-.023438 0-.046875 0-.066407 0-5.484374-.019532-10.542968-2.527344-13.867187-6.886719l-17.292969-22.640625c14.238282-3.964844 37.277344-11.789063 45.886719-22.773438 2.589844-3.308594 2.007813-8.085937-1.296875-10.675781-3.300781-2.589844-8.082031-2.011719-10.675781 1.292969-1.59375 2.035156-7.398438 7.476562-26.820313 14.042968-8.71875 2.945313-16.796875 4.960938-20.140625 5.75-3.339843-.789062-11.421875-2.804687-20.144531-5.75-19.425781-6.566406-25.238281-12.011718-26.835938-14.046874-2.59375-3.304688-7.375-3.878907-10.675781-1.289063-3.304687 2.59375-3.878906 7.371094-1.289062 10.675781 8.617187 10.980469 31.652343 18.804688 45.890625 22.769532l-17.292969 22.644531c-3.328125 4.359375-8.378906 6.867187-13.867187 6.886719zm138.523437 173.902343v29.28125h-15.242187l5.84375-7.226562c2.050781-2.539063 2.253906-6.109375.5-8.867188l-8.40625-13.1875zm-35.335937 0 10.671874 16.75-10.132812 12.53125h-43.941406c.003906-.199219.015625-.398437.015625-.597656v-28.683594zm-101.128907-13.851562h31.105469c6.304688 0 11.429688 5.125 11.429688 11.429687v31.105469c0 6.300781-5.128907 11.429687-11.429688 11.429687h-31.105469c-6.300781 0-11.429687-5.128906-11.429687-11.429687v-31.105469c0-6.304687 5.128906-11.429687 11.429687-11.429687zm-48.089843 13.851562h21.453124v28.683594c0 .199219.011719.398437.015626.597656h-21.46875zm-67.53125-168.226562c12.890624 8.808593 38.800781 30.792969 39.285156 65.324219l-41.710938 150.785156c-.035156.128906-.082031.253906-.121094.382812-11.402343.109375-29.574218-1.726562-48.867187-11.605468 11.535156-97.496094 41.417969-179.453126 51.414063-204.886719zm3.1875 232.292969-6.09375 36.074218c-1.101563 6.527344-6.6875 11.304688-13.28125 11.363282-22.5.167968-39.507813-6.207032-49.796876-11.613282-5.289062-2.777344-8.117187-8.601562-7.039062-14.492187 1.925781-10.507813 4.652344-25.351563 7.070312-38.445313.015626-.09375.058594-.320312.355469-.453125.101563-.046875.195313-.066406.277344-.066406.164063 0 .277344.070313.332031.101563 27.492188 16.320312 54.101563 17.523437 67.515625 16.785156.085938-.007813.304688-.019532.507813.207031.203125.230469.167968.453125.152344.539063zm154.582031 146.707031c-54.625 0-114.851563-10.640625-137.417969-15.039063 4.738281-13.425781 8.25-34.046875 12.175781-57.125 6.082031-35.746094 13.589844-79.828125 26.503907-94.179687.296874.035156.59375.058593.898437.058593h34.265625c4.855469 6.566407 12.648438 10.832032 21.425781 10.832032h31.105469c8.777344 0 16.570312-4.265625 21.429688-10.832032h8.351562c12.621094 16.410157 6.882812 53.140626 1.308594 88.734376-4.535156 28.960937-8.847656 56.550781-4.566406 77.285156-5.1875.171875-10.359376.265625-15.480469.265625zm137.421875-15.039063c-18.351563 3.578125-61.609375 11.28125-106.511719 14.035156-4.632813-18.027343-.171875-46.535156 4.160156-74.195312 5.28125-33.722656 10.695313-68.378906 1.054688-91.085938h62.671875c12.882812 14.410157 20.378906 58.425782 26.453125 94.125 3.925781 23.070313 7.4375 43.695313 12.171875 57.121094zm-20.367188-344.058594c-9.148437 14.324219-13.785156 29.929688-13.785156 46.390626v.011718c0 .054688.003906.109375.007812.164063 0 .070312-.003906.136719 0 .207031.007813.203125.980469 20.378906.371094 41.800781-.824218 29.195313-3.953125 40.40625-5.789062 44.542969h-49.886719c2.800781-4.660156 5.019531-10.261719 6.566406-16.703125 3.617188-15.027344 3.375-33.285156-.683593-51.402344-8.25-36.804687-42.574219-82.285156-61.1875-102.546875l7.332031-9.601562 18.257812 23.902344c6.214844 8.140624 15.652344 12.828124 25.894531 12.867187h.125c10.164063 0 19.550782-4.597656 25.773438-12.621094 12.292969-15.851562 21.457031-29.71875 27.460938-41.515625 15.167968 7.085938 34.933593 17.902344 51.410156 32.179688-8.683594 5.929687-21.878906 16.644531-31.867188 32.324218zm106.703125 248.214844c-10.289062 5.40625-27.320312 11.777344-49.792969 11.613282-6.597656-.058594-12.183593-4.835938-13.285156-11.363282l-6.09375-36.074218c-.011718-.085938-.050781-.308594.152344-.539063.167969-.1875.351562-.210937.453125-.210937.023437 0 .042969 0 .054687.003906 13.417969.738281 40.023438-.464844 67.515626-16.785156.082031-.046876.300781-.179688.613281-.039063.296875.136719.335937.363281.355469.457031 2.417968 13.09375 5.140624 27.9375 7.066406 38.441406 1.078125 5.894532-1.75 11.71875-7.039063 14.496094zm0 0"/><path d="m205.5 320.886719h28.269531c4.199219 0 7.601563-3.402344 7.601563-7.605469v-28.265625c0-4.199219-3.402344-7.601563-7.601563-7.601563h-28.269531c-4.199219 0-7.601562 3.402344-7.601562 7.601563v28.265625c0 4.203125 3.402343 7.605469 7.601562 7.605469zm7.605469-28.265625h13.058593v13.058594h-13.058593zm0 0"/><path d="m237.042969 151.015625c-10.75 0-19.496094 8.746094-19.496094 19.496094s8.746094 19.496093 19.496094 19.496093 19.496093-8.746093 19.496093-19.496093-8.746093-19.496094-19.496093-19.496094zm0 23.78125c-2.363281 0-4.289063-1.921875-4.289063-4.285156s1.925782-4.289063 4.289063-4.289063c2.367187 0 4.289062 1.925782 4.289062 4.289063s-1.925781 4.285156-4.289062 4.285156zm0 0"/><path d="m239.347656 223.484375c0 10.75 8.746094 19.496094 19.496094 19.496094s19.496094-8.746094 19.496094-19.496094-8.746094-19.496094-19.496094-19.496094-19.496094 8.746094-19.496094 19.496094zm19.496094-4.289063c2.363281 0 4.285156 1.921876 4.285156 4.289063 0 2.363281-1.921875 4.285156-4.285156 4.285156-2.367188 0-4.289062-1.921875-4.289062-4.285156 0-2.367187 1.921874-4.289063 4.289062-4.289063zm0 0"/><path d="m265.730469 377.835938c0-10.75-8.746094-19.496094-19.496094-19.496094s-19.496094 8.746094-19.496094 19.496094 8.746094 19.496093 19.496094 19.496093 19.496094-8.746093 19.496094-19.496093zm-19.496094 4.285156c-2.363281 0-4.289063-1.921875-4.289063-4.285156 0-2.363282 1.921876-4.289063 4.289063-4.289063 2.363281 0 4.285156 1.925781 4.285156 4.289063 0 2.363281-1.921875 4.285156-4.285156 4.285156zm0 0"/><path d="m278.234375 306.03125c2.386719 2.386719 6.191406 2.910156 9.128906 1.234375 2.59375-1.480469 4.128907-4.414063 3.816407-7.394531-.320313-3-2.460938-5.625-5.359376-6.484375-3.121093-.925781-6.585937.242187-8.445312 2.929687-2.066406 2.984375-1.710938 7.148438.859375 9.714844zm0 0"/></svg>