<svg height="511pt" viewBox="-74 1 511 511.99898" width="511pt" xmlns="http://www.w3.org/2000/svg"><path d="m64.183594 23.289062c-.042969-2.875-.085938-5.566406-.117188-8.027343h20.921875c-.367187 8.371093-.515625 22.234375 1.171875 38.222656 3.6875 34.980469 14.011719 62.078125 30.675782 80.539063 16.226562 17.972656 38.015624 27.082031 64.761718 27.082031 26.742188 0 48.527344-9.109375 64.75-27.078125 32.375-35.859375 32.894532-96.507813 31.863282-118.765625h20.910156c-.03125 2.457031-.074219 5.152343-.117188 8.023437-.269531 17.476563-.640625 41.410156.132813 68.503906.121093 4.210938 3.660156 7.539063 7.84375 7.410157 4.214843-.121094 7.53125-3.632813 7.410156-7.84375-.765625-26.761719-.398437-50.496094-.128906-67.832031.097656-6.316407.183593-11.773438.183593-15.894532 0-4.210937-3.417968-7.628906-7.632812-7.628906h-36.765625c-2.15625 0-4.214844.914062-5.660156 2.515625-1.277344 1.410156-1.96875 3.242187-1.964844 5.128906-.015625 17.632813-34.953125 52.847657-80.828125 52.847657-45.867188 0-80.800781-35.203126-80.824219-52.839844.003907-1.886719-.6875-3.71875-1.964843-5.132813-1.449219-1.605469-3.503907-2.519531-5.664063-2.519531h-36.765625c-4.214844 0-7.632812 3.417969-7.632812 7.628906 0 4.121094.085937 9.578125.183593 15.894532.472657 30.804687 1.269531 82.363281-4.433593 131.78125-6.753907 58.503906-20.464844 95.402343-40.75 109.667968-2.035157 1.429688-3.242188 3.757813-3.242188 6.242188v214.558594c0 3.503906 2.386719 6.558593 5.785156 7.402343.699219.175781 17.453125 4.316407 45.664063 8.722657.398437.0625.796875.09375 1.1875.09375 3.691406 0 6.941406-2.691407 7.527343-6.453126.652344-4.164062-2.195312-8.066406-6.359374-8.71875-18.035157-2.816406-31.425782-5.558593-38.546876-7.125v-204.703124c51.652344-42.230469 49.398438-188.511719 48.425782-251.703126zm50.21875 29.214844c19.566406 14.992188 43.429687 23.25 67.191406 23.25s47.625-8.257812 67.1875-23.25c5.304688-4.066406 10.007812-8.445312 14-12.957031-1.359375 25.714844-7.242188 61.554687-27.785156 84.28125-13.203125 14.609375-31.171875 22.019531-53.398438 22.019531-22.230468 0-40.199218-7.410156-53.40625-22.023437-20.542968-22.726563-26.425781-58.566407-27.785156-84.277344 3.992188 4.511719 8.695312 8.890625 13.996094 12.957031zm0 0"/><path d="m359.445312 264.972656c-30.011718-21.101562-40.328124-89.617187-43.695312-143.378906-.261719-4.207031-3.882812-7.394531-8.089844-7.136719-4.207031.261719-7.402344 3.886719-7.140625 8.089844 5.074219 80.972656 20.429688 130.929687 46.90625 152.453125v204.6875c-19.273437 4.214844-84.664062 17.050781-165.828125 17.050781-31.882812 0-64.632812-1.957031-97.339844-5.816406-4.179687-.488281-7.976562 2.5-8.472656 6.683594-.492187 4.183593 2.5 7.976562 6.683594 8.46875 33.296875 3.933593 66.648438 5.925781 99.128906 5.925781 98.589844 0 174.546875-18.636719 175.304688-18.824219 3.398437-.847656 5.785156-3.898437 5.785156-7.402343v-214.558594c0-2.484375-1.210938-4.8125-3.242188-6.242188zm0 0"/><path d="m128.75 291.023438c-14.320312 10.464843-29.125 21.285156-29.125 35.660156v16.929687c0 1.707031 1.011719 3.316407 2.847656 4.53125 1.609375 1.066407 3.65625 1.703125 5.480469 1.703125h62.121094c3.207031 0 6.234375-4.132812 6.234375-8.503906 0-4.34375-2.910156-8.15625-6.234375-8.15625h-51.175781v-6.503906c0-8.410156 10.050781-15.457032 21.691406-23.621094 7.816406-5.484375 16.675781-11.699219 23.394531-19.121094 7.707031-8.519531 11.453125-17.371094 11.453125-27.054687 0-9.933594-3.949219-18.921875-11.121094-25.3125-6.910156-6.152344-16.265625-9.542969-26.347656-9.542969-9.53125 0-18.445312 3.007812-25.101562 8.472656-6.964844 5.714844-10.800782 13.71875-10.800782 22.542969 0 7.011719 2.78125 10.421875 8.503906 10.421875 3.652344 0 5.960938-1.199219 7.253907-2.207031 1.679687-1.3125 2.644531-3.097657 2.644531-4.898438 0-5.527343 1.765625-10.019531 5.105469-12.992187 3.054687-2.71875 7.339843-4.15625 12.394531-4.15625 9.015625 0 18.71875 5.691406 18.71875 18.195312 0 13.199219-13.570312 23.117188-27.9375 33.613282zm0 0"/><path d="m223.824219 334.234375c-14.136719 0-20.464844-7.558594-20.464844-15.050781 0-5.25-2.546875-7.109375-9.726563-7.109375-6.566406 0-8.675781 1.941406-8.675781 7.980469 0 7.574218 3.320313 15.089843 9.113281 20.617187 7.007813 6.6875 17.234376 10.222656 29.578126 10.222656 11.722656 0 21.480468-2.988281 28.21875-8.644531 7.761718-6.515625 11.695312-16.449219 11.695312-29.523438v-3.316406c0-13.300781-5.925781-22.402344-17.613281-27.058594 8.632812-4.300781 13.773437-15.160156 13.773437-29.132812 0-20.691406-11.84375-31.1875-35.203125-31.1875-12.855469 0-22.683593 3.542969-29.210937 10.53125-6.824219 7.304688-7.5625 15.78125-7.5625 19.085938 0 6.617187 1.339844 8.679687 9.726562 8.679687 6.039063 0 8.851563-2.425781 8.851563-7.632813 0-12.339843 11.289062-14.179687 18.019531-14.179687 11.820312 0 17.324219 5.671875 17.324219 17.84375 0 16.757813-8.660157 19.070313-18.023438 19.070313-3.792969 0-6.058593 2.851562-6.058593 7.628906 0 1.75.4375 7.457031 6.058593 7.457031 6.691407 0 11.851563 1.429687 15.34375 4.246094 3.863281 3.117187 5.820313 8.046875 5.820313 14.648437v3.3125c0 14.878906-6.472656 21.511719-20.984375 21.511719zm0 0"/></svg>