<svg height="512pt" viewBox="0 -9 512.00115 512" width="512pt" xmlns="http://www.w3.org/2000/svg"><path d="m504.207031 352.292969c-5.601562-8.246094-13.546875-14.257813-22.8125-17.382813 2.292969-43.066406-15.367187-109.160156-61.230469-160.210937-18.414062-20.5-45.992187-43.476563-84.621093-57.648438 3.816406-7.953125 4.898437-17.078125 2.824219-25.863281-.414063-1.765625-.628907-3.605469-.628907-5.460938 0-1.851562.214844-3.691406.628907-5.460937 3.332031-14.101563-1.355469-28.734375-12.234376-38.289063-.09375-.085937-.1875-.171874-.285156-.257812-2.78125-2.394531-5-5.4375-6.382812-8.746094-.007813-.023437-.039063-.097656-.050782-.121094-5.648437-13.445312-18.179687-22.558593-32.710937-23.785156-.078125-.007812-.171875-.011718-.269531-.015625-3.492188-.324219-6.933594-1.4375-9.972656-3.238281-.082032-.054688-.164063-.105469-.25-.15625-12.46875-7.542969-27.957032-7.542969-40.414063 0-.023437.015625-.078125.046875-.121094.074219-3.066406 1.84375-6.550781 2.988281-10.089843 3.316406-.09375.003906-.1875.011719-.277344.019531-14.535156 1.226563-27.074219 10.339844-32.722656 23.785156-.042969.101563-.082032.207032-.125.316407-1.421876 3.269531-3.601563 6.226562-6.304688 8.558593-.03125.027344-.066406.054688-.097656.085938-11.003906 9.539062-15.765625 24.261719-12.425782 38.449219.421876 1.800781.636719 3.640625.636719 5.464843 0 1.832032-.214843 3.667969-.636719 5.453126-.691406 2.929687-1.046874 5.945312-1.046874 8.964843 0 5.890625 1.332031 11.640625 3.835937 16.863281-41.679687 15.273438-70.804687 40.972657-89.921875 63.835938-2.691406 3.21875-2.265625 8.015625.957031 10.710938 3.222657 2.691406 8.015625 2.265624 10.710938-.957032 11.453125-13.699218 26.796875-28.484375 46.640625-41.074218-1.667969 1.644531-3.324219 3.3125-4.957032 5.042968-46.234374 49.015625-66.347656 122.257813-66.226562 172.824219-9.328125 1.359375-18.652344 2.824219-27.964844 4.394531-1.378906-35.738281 12-80.84375 35.222656-117.480468 2.246094-3.546876 1.195313-8.242188-2.351562-10.492188-3.546875-2.246094-8.246094-1.195312-10.496094 2.351562-25.707031 40.554688-39.746094 89.195313-37.453125 128.757813-9.253906 3.121094-17.191406 9.128906-22.789062 17.367187-6.902344 10.164063-9.332031 22.382813-6.839844 34.414063l14.832031 71.648437c4.957032 23.921876 27.757813 39.390626 51.894532 35.214844 90.898437-15.75 183.632812-20.03125 275.621093-12.726562 4.195313.332031 7.851563-2.789063 8.183594-6.976563s-2.792969-7.847656-6.980469-8.179687c-93.253906-7.410156-187.269531-3.066406-279.417968 12.902344-16.015626 2.769531-31.125-7.476563-34.410157-23.320313l-14.832031-71.644531c-1.648438-7.964844-.039062-16.058594 4.53125-22.785156 4.585938-6.753907 11.550781-11.25 19.609375-12.664063 143.339844-25.121094 288.695313-25.121094 432.035156 0 8.054688 1.414063 15.019531 5.910156 19.605469 12.667969 4.570312 6.726562 6.179688 14.820312 4.53125 22.777344l-14.84375 71.652343c-3.273438 15.84375-18.390625 26.082031-34.402344 23.316407-23.804687-4.125-48.042968-7.515626-72.039062-10.078126-4.175782-.445312-7.921875 2.578126-8.367188 6.753907-.445312 4.175781 2.578125 7.921875 6.753906 8.367187 23.667969 2.53125 47.574219 5.871094 71.058594 9.941406 2.648438.457032 5.28125.679688 7.875.679688 21.058594 0 39.613282-14.601562 44.011719-35.898438l14.847656-71.648437c2.488281-12.027344.058594-24.25-6.84375-34.410156zm-95.355469-167.433594c42.1875 46.960937 58.921876 107.070313 57.480469 146.921875-9.308593-1.570312-18.628906-3.035156-27.957031-4.394531.121094-50.566407-19.992188-123.808594-66.226562-172.824219-1.589844-1.6875-3.207032-3.320312-4.835938-4.925781 17.328125 10.996093 31.046875 23.539062 41.539062 35.222656zm-111.15625.671875c-4.683593-27.3125-10.234374-47.496094-16.878906-61.015625 24.902344 12.265625 41.6875 41.6875 52.101563 67.328125 17.335937 42.675781 24.390625 91.746094 25.394531 126.457031-16.488281-1.34375-32.988281-2.371093-49.496094-3.0625-.554687-35.765625-3.710937-86.484375-11.121094-129.707031zm-94.511718 129.707031c-16.503906.691407-33.003906 1.71875-49.492188 3.0625 1.007813-34.71875 8.066406-83.789062 25.398438-126.457031 10.414062-25.640625 27.199218-55.058594 52.097656-67.324219-6.640625 13.519531-12.191406 33.707031-16.875 61.011719-7.414062 43.230469-10.570312 93.945312-11.128906 129.707031zm143.824218-129.117187c-9.492187-23.367188-20.757812-41.96875-33.527343-55.566406 17.351562 7.738281 33.261719 19.234374 47.605469 34.441406 20.585937 21.824218 37.359374 50.960937 48.507812 84.261718 8.535156 25.488282 13.34375 52.675782 13.570312 76.003907-16.515624-2.207031-33.050781-4.078125-49.601562-5.628907-.867188-36.226562-8.179688-88.273437-26.554688-133.511718zm-159.210937-85.980469c0-1.835937.210937-3.671875.636719-5.457031.695312-2.9375 1.042968-5.949219 1.042968-8.957032 0-3-.351562-6.011718-1.042968-8.953124-2.042969-8.683594.886718-17.699219 7.640625-23.519532.035156-.03125.066406-.058594.097656-.085937 4.507813-3.910157 8.109375-8.878907 10.421875-14.375.046875-.105469.089844-.214844.128906-.324219 3.472656-7.996094 10.96875-13.425781 19.65625-14.230469.09375-.003906.183594-.011719.273438-.019531 5.949218-.5 11.804687-2.402344 16.929687-5.496094.027344-.015625.085938-.050781.132813-.082031 7.539062-4.542969 16.878906-4.570313 24.445312-.082031.085938.054687.171875.109375.257813.164062 5.128906 3.09375 10.984375 4.996094 16.929687 5.496094.082032.007812.171875.011719.265625.015625 8.789063.8125 16.359375 6.351563 19.75 14.429687.007813.019532.039063.09375.046875.113282 2.273438 5.425781 5.808594 10.339844 10.242188 14.226562.089844.085938.183594.167969.273437.246094 6.765625 5.832031 9.695313 14.839844 7.640625 23.527344-.683594 2.917968-1.03125 5.925781-1.03125 8.945312 0 3.035156.347656 6.046875 1.035156 8.957032 1.421876 6.042968.410157 12.347656-2.691406 17.59375-19.148437-5.488282-40.699218-8.808594-64.882812-8.808594-24.148438 0-45.710938 3.273437-64.898438 8.757812-2.144531-3.636718-3.300781-7.796875-3.300781-12.082031zm-85.390625 149.117187c11.148438-33.300781 27.921875-62.433593 48.507812-84.257812 14.347657-15.214844 30.265626-26.710938 47.617188-34.449219-12.769531 13.597657-24.039062 32.203125-33.53125 55.570313-18.375 45.230468-25.691406 97.277344-26.558594 133.511718-16.550781 1.546876-33.085937 3.421876-49.601562 5.625.222656-23.324218 5.035156-50.511718 13.566406-76zm116 65.4375c.578125-35.109374 3.675781-84.511718 10.894531-126.59375 9.222657-53.753906 20.757813-68.851562 26.382813-69.410156h.648437c5.621094.558594 17.15625 15.65625 26.375 69.410156 7.214844 42.074219 10.3125 91.480469 10.890625 126.59375-25.0625-.75-50.132812-.75-75.191406 0zm0 0"/></svg>