<svg height="512pt" viewBox="0 -147 512.00068 512" width="512pt" xmlns="http://www.w3.org/2000/svg"><path d="m511.804688 51.59375c-.949219-4.089844-5.035157-6.636719-9.125-5.691406l-7.871094 1.820312c-5.59375-13.058594-14.886719-23.519531-27.835938-31.261718-3.601562-2.152344-8.273437-.980469-10.425781 2.625-2.15625 3.601562-.984375 8.269531 2.621094 10.425781 9.265625 5.542969 16.058593 12.746093 20.488281 21.71875l-186.511719 43.15625c-.566406-4.234375-.867187-8.554688-.867187-12.941407 0-24.234374 8.789062-41.246093 26.867187-52.011718 15.851563-9.4375 39.386719-14.222656 69.945313-14.222656 16.820312 0 31.605468 1.445312 43.953125 4.292968 4.097656.949219 8.175781-1.605468 9.121093-5.699218.945313-4.089844-1.605468-8.171876-5.699218-9.117188-13.464844-3.109375-29.40625-4.6875-47.375-4.6875-69.722656 0-107.207032 24.109375-111.585938 71.703125-14.152344-2.738281-28.863281-2.738281-43.011718 0-4.378907-47.589844-41.863282-71.69921875-111.589844-71.69921875-56.824219 0-92.207032 16.03124975-105.738282 47.71484375l-7.84375-1.816406c-4.082031-.941406-8.175781 1.601562-9.121093 5.695312-.949219 4.089844 1.601562 8.175782 5.691406 9.121094l6.78125 1.570312c-1.191406 5.960938-1.796875 12.34375-1.796875 19.152344 0 39.613282 20.667969 74.488282 51.785156 94.414063l-29.03125 29.03125c-2.96875 2.96875-2.96875 7.785156 0 10.753906 1.488282 1.484375 3.433594 2.226563 5.378906 2.226563 1.945313 0 3.890626-.742188 5.378907-2.226563l32.199219-32.203125c14.125 6.4375 29.808593 10.03125 46.316406 10.03125 46.113281 0 85.804687-28.007812 102.964844-67.90625l30.132812-6.972656 30.132812 6.972656c17.160157 39.894531 56.847657 67.902344 102.957032 67.902344 16.507812 0 32.195312-3.59375 46.316406-10.03125l32.207031 32.207031c1.484375 1.484375 3.429688 2.226563 5.378907 2.226563 1.945312 0 3.890624-.742188 5.375-2.226563 2.972656-2.96875 2.972656-7.785156 0-10.753906l-29.035157-29.035157c31.121094-19.921874 51.789063-54.796874 51.789063-94.40625 0-6.796874-.613282-13.179687-1.824219-19.152343l6.8125-1.574219c4.09375-.949219 6.640625-5.03125 5.695313-9.125zm-234.589844 35.578125c.183594 3.597656.539062 7.152344 1.054687 10.65625l-22.269531 5.152344-22.269531-5.152344c.515625-3.503906.875-7.058594 1.054687-10.660156 13.894532-3.085938 28.527344-3.089844 42.429688.003906zm-224.257813-57.738281c15.847657-9.4375 39.382813-14.21875 69.945313-14.21875 30.566406 0 54.097656 4.78125 69.949218 14.21875 18.082032 10.765625 26.871094 27.777344 26.871094 52.007812 0 4.390625-.300781 8.710938-.867187 12.945313l-186.515625-43.15625c4.453125-9.011719 11.289062-16.246094 20.617187-21.796875zm69.945313 148.828125c-12.222656 0-23.921875-2.285157-34.703125-6.4375l18.75-18.75 31.488281-7.285157c4.09375-.945312 6.640625-5.03125 5.695312-9.121093-.949218-4.09375-5.035156-6.644531-9.121093-5.695313l-33.609375 7.777344c-1.386719.320312-2.65625 1.023438-3.664063 2.03125l-24.019531 24.019531c-28.488281-16.871093-47.632812-47.917969-47.632812-83.359375 0-5.628906.496093-10.851562 1.449218-15.714844l188.113282 43.527344c-.335938 1.109375-.683594 2.214844-1.054688 3.308594l-49.988281 11.566406c-4.09375.945313-6.640625 5.03125-5.695313 9.121094.816406 3.515625 3.941406 5.894531 7.402344 5.894531.566406 0 1.144531-.066406 1.71875-.199219l38.597656-8.929687c-16.789062 28.828125-48.03125 48.246094-83.726562 48.246094zm266.1875-.003907c-35.691406 0-66.929688-19.417968-83.71875-48.242187l99.683594 23.066406 18.742187 18.742188c-10.78125 4.148437-22.480469 6.433593-34.707031 6.433593zm96.824218-96.8125c0 35.4375-19.144531 66.484376-47.632812 83.355469l-24.015625-24.015625c-1.003906-1.007812-2.273437-1.710937-3.660156-2.03125l-113.195313-26.191406c-.371094-1.09375-.71875-2.199219-1.054687-3.308594l188.109375-43.527344c.953125 4.863282 1.449218 10.085938 1.449218 15.71875zm0 0"/></svg>