<svg height="512pt" viewBox="-75 0 512 512.00101" width="512pt" xmlns="http://www.w3.org/2000/svg"><path d="m47.355469 150.699219c.167969 0 .335937-.007813.507812-.019531 4.183594-.273438 7.351563-3.890626 7.074219-8.070313l-2.691406-40.964844c-.277344-4.183593-3.894532-7.339843-8.074219-7.074219-4.183594.273438-7.351563 3.886719-7.078125 8.070313l2.695312 40.964844c.265626 4.011719 3.601563 7.09375 7.566407 7.09375zm0 0"/><path d="m76.972656 151.914062c.167969 0 .335938-.007812.507813-.015624 4.179687-.277344 7.351562-3.890626 7.074219-8.074219l-2.695313-40.960938c-.273437-4.183593-3.894531-7.339843-8.070313-7.078125-4.183593.277344-7.351562 3.890625-7.078124 8.074219l2.695312 40.960937c.261719 4.015626 3.601562 7.09375 7.566406 7.09375zm0 0"/><path d="m106.585938 153.128906c.167968 0 .339843-.003906.507812-.015625 4.183594-.273437 7.351562-3.890625 7.078125-8.074219l-2.695313-40.960937c-.273437-4.183594-3.875-7.351563-8.070312-7.074219-4.183594.273438-7.351562 3.886719-7.078125 8.070313l2.691406 40.960937c.265625 4.015625 3.601563 7.09375 7.566407 7.09375zm0 0"/><path d="m362.21875 378.113281c-1.117188-17.019531-12.15625-38.78125-34.738281-68.488281-2.539063-3.335938-7.300781-3.984375-10.636719-1.449219-3.339844 2.535157-3.988281 7.296875-1.449219 10.636719 3.046875 4.007812 5.851563 7.859375 8.464844 11.585938-14.117187 7.371093-41.042969 26.503906-56.628906 70.128906-16.894531-26.019532-42.03125-54.511719-65.308594-80.898438-17.78125-20.15625-34.679687-39.316406-42.265625-51.597656l19.960938-59.628906c.671874-2.007813.476562-4.207032-.542969-6.0625-1.019531-1.855469-2.769531-3.203125-4.824219-3.714844l-29.410156-7.296875c-3.472656-41.828125-4.714844-89.5625-4.875-113.640625-.027344-4.164062-3.40625-7.53125-7.574219-7.539062l-2.441406-.003907-2.523438-38.402343c-.277343-4.183594-3.882812-7.34375-8.074219-7.078126-4.183593.277344-7.351562 3.890626-7.078124 8.074219l2.457031 37.371094-7.738281-.015625c-1.402344-23.320312-3.503907-43.863281-4.738282-54.894531l97.800782.210937c.199218 13.390625.808593 42.929688 2.5625 74.511719 3.226562 58.09375 8.675781 95.324219 16.199218 110.652344 6.683594 13.613281 25.324219 34.742187 46.910156 59.210937 10.1875 11.550782 20.722657 23.492188 30.902344 35.644532 1.503906 1.792968 3.65625 2.71875 5.824219 2.71875 1.71875 0 3.449219-.582032 4.871094-1.773438 3.210937-2.691406 3.636719-7.480469.945312-10.691406-10.304687-12.300782-20.90625-24.320313-31.160156-35.941406-19.992187-22.667969-38.878906-44.074219-44.664063-55.855469-8.679687-17.683594-12.914062-73.21875-14.667968-104.746094-2.351563-42.335937-2.628906-80.96875-2.632813-81.355469-.027343-4.164062-3.410156-7.53125-7.574219-7.539062l-113.839843-.246094c-.007813 0-.011719 0-.019531 0-2.175782 0-4.25.9375-5.691407 2.570312-1.445312 1.640626-2.113281 3.820313-1.835937 5.988282.039062.292968 3.535156 27.804687 5.597656 61.5l-73.21875-.164063c-.007812 0-.011719 0-.019531 0-2.175781 0-4.25.9375-5.691407 2.570313-1.445312 1.636718-2.113281 3.820312-1.835937 5.988281.066406.527344 6.773437 53.453125 7.0625 102.769531.023437 4.175782 3.417969 7.546875 7.589844 7.546875h.042969c4.195312-.023437 7.570312-3.441406 7.550781-7.636719-.226563-38.371093-4.253907-78.808593-6.179688-96.035156l97.785157.21875c.453124 31.9375 3.179687 153.390625 18.769531 185.15625 6.679687 13.609375 25.320312 34.738282 46.902343 59.203125 19.625 22.246094 41.90625 47.507813 58.195313 70.59375-15.074219 7.851563-44.855469 29.15625-59.726563 79.527344-.820312-.671875-1.636718-1.359375-2.449218-2.070313-19.527344-17.117187-37.71875-38.441406-55.3125-59.058593-18.496094-21.683594-36.257813-42.492188-54.589844-57.378907l27.777344-82.976562c.671875-2.007812.476562-4.207031-.546875-6.0625-1.019531-1.859375-2.765625-3.203125-4.824219-3.714844l-72.5-17.984375c2.941406-9.835937 4.886719-22.554687 5.902344-38.558593.265625-4.183594-2.910156-7.792969-7.09375-8.058594-4.191406-.265625-7.789063 2.910156-8.054688 7.09375-1.203125 18.933594-3.792968 32.992187-7.691406 41.785156-20.9375 47.167969-7.5625 84.429688 38.679688 107.757812 23.554687 11.878907 46.789062 39.113282 71.394531 67.949219 17.941406 21.03125 36.496093 42.78125 56.851562 60.621094 17.152344 15.035156 36.113281 22.859375 54.011719 22.859375 8.917969 0 17.574219-1.941406 25.609375-5.90625 20.726563-10.226562 32.558594-32.480469 30.878906-58.078125-.195312-2.957031-.703125-6.027344-1.484375-9.195313 6.828125 2.09375 13.664063 3.152344 20.316406 3.152344 10.824219 0 21.152344-2.785156 30.136719-8.378906 17.957031-11.1875 27.75-31.929688 26.199219-55.480469zm-199.609375-166.730469-11.058594 33.035157c-2.074219-10.292969-3.800781-23.078125-5.238281-37.082031zm-141.523437 53.449219 66.339843 16.457031-23.652343 70.660157c-2.855469-1.816407-5.730469-3.472657-8.632813-4.9375-36.933594-18.632813-48.105469-45.558594-34.054687-82.179688zm228.367187 227.644531c-13.945313 6.882813-30.78125 5.410157-47.207031-3.636718 8.59375-32.371094 23.828125-51.613282 35.402344-62.191406 7.800781-7.128907 14.984374-11.355469 19.578124-13.628907 8.453126 13.59375 14.015626 25.996094 14.675782 35.992188 1.289062 19.648437-7.101563 35.894531-22.449219 43.464843zm78.535156-71.769531c-13.984375 8.710938-32.0625 8.175781-49.886719-1.398437-.167968-.339844-.34375-.679688-.515624-1.019532 8.753906-32.492187 24.246093-51.671874 35.859374-62.105468 7.511719-6.746094 14.398438-10.800782 18.867188-13.019532 9.199219 14.871094 14.164062 26.917969 14.753906 35.945313 1.199219 18.136719-5.753906 33.296875-19.078125 41.597656zm0 0"/><path d="m148.96875 25.882812c-4.183594.273438-7.351562 3.890626-7.078125 8.074219l2.695313 40.960938c.261718 4.011719 3.601562 7.09375 7.566406 7.09375.167968 0 .335937-.007813.507812-.019531 4.183594-.273438 7.351563-3.890626 7.074219-8.070313l-2.691406-40.964844c-.277344-4.183593-3.894531-7.339843-8.074219-7.074219zm0 0"/><path d="m178.582031 27.097656c-4.183593.277344-7.351562 3.890625-7.074219 8.074219l2.691407 40.960937c.265625 4.015626 3.601562 7.09375 7.570312 7.09375.167969 0 .335938-.007812.503907-.015624 4.183593-.277344 7.351562-3.890626 7.078124-8.074219l-2.695312-40.960938c-.273438-4.183593-3.878906-7.34375-8.074219-7.078125zm0 0"/></svg>