<?xml version="1.0" encoding="UTF-8"?>
<!DOCTYPE svg PUBLIC "-//W3C//DTD SVG 1.1//EN" "http://www.w3.org/Graphics/SVG/1.1/DTD/svg11.dtd">
<!-- Creator: CorelDRAW 2019 (64-Bit) -->
<svg xmlns="http://www.w3.org/2000/svg" xml:space="preserve" width="210mm" height="210mm" version="1.1" style="shape-rendering:geometricPrecision; text-rendering:geometricPrecision; image-rendering:optimizeQuality; fill-rule:evenodd; clip-rule:evenodd"
viewBox="0 0 21000 21000"
 xmlns:xlink="http://www.w3.org/1999/xlink">
 <defs>
  <style type="text/css">
   <![CDATA[
    .fil1 {fill:#992572}
    .fil3 {fill:#D1D1D1}
    .fil2 {fill:white}
    .fil0 {fill:url(#id0)}
   ]]>
  </style>
  <linearGradient id="id0" gradientUnits="userSpaceOnUse" x1="6161.65" y1="5329.76" x2="14838.35" y2="15670.24">
   <stop offset="0" style="stop-opacity:1; stop-color:#FA9F4D"/>
   <stop offset="0.501961" style="stop-opacity:1; stop-color:#E5485E"/>
   <stop offset="1" style="stop-opacity:1; stop-color:#C32D92"/>
  </linearGradient>
 </defs>
 <g id="Слой_x0020_1">
  <metadata id="CorelCorpID_0Corel-Layer"/>
  <circle class="fil0" cx="10500" cy="10500" r="10500"/>
  <path class="fil1" d="M15368.96 5451.88c-1254.54,158.81 -2562.62,153.28 -3879.05,27.93 -1838.4,-141.42 -4525.25,-989.91 -5515.17,707.07 -1590.26,2716.71 -805.92,6194.79 -435.34,9272.73l5526.32 5525.13c5347.95,-283.95 9634,-4569.43 9918.85,-9917.17l-5615.61 -5615.69z"/>
  <g id="_2705611195776">
   <path class="fil2" d="M12929.23 4489.9l-4858.5 0c-1974.49,0 -3580.83,1606.34 -3580.83,3580.83l0 4858.51c0,1974.41 1606.34,3580.87 3580.87,3580.87l4858.5 -0.01c1974.41,0 3580.87,-1606.38 3580.87,-3580.87l0 -4858.5c-0.04,-1974.5 -1606.42,-3580.83 -3580.91,-3580.83l0 0zm2371.65 8439.37c0,1309.79 -1061.81,2371.61 -2371.61,2371.61l-4858.5 0c-1309.79,0 -2371.61,-1061.81 -2371.61,-2371.61l0 -4858.5c0,-1309.79 1061.81,-2371.65 2371.61,-2371.65l4858.5 0c1309.79,0 2371.61,1061.89 2371.61,2371.65l0 4858.5z"/>
   <path class="fil2" d="M10500 7391.1c-1714.21,0 -3108.9,1394.7 -3108.9,3108.9 0,1714.08 1394.7,3108.78 3108.9,3108.78 1714.2,0 3108.78,-1394.57 3108.78,-3108.78 0,-1714.21 -1394.57,-3108.9 -3108.78,-3108.9l0 0zm0 5008.46c-1049.14,0 -1899.68,-850.38 -1899.68,-1899.56 0,-1049.18 850.54,-1899.68 1899.68,-1899.68 1049.14,0 1899.56,850.46 1899.56,1899.68 0,1049.14 -850.42,1899.56 -1899.56,1899.56l0 0z"/>
  </g>
  <g id="_2705611192544">
   <path class="fil3" d="M14359.69 7414.56c0,411.39 -333.54,744.97 -744.97,744.97 -411.39,0 -744.97,-333.58 -744.97,-744.97 0,-411.43 333.58,-744.97 744.97,-744.97 411.52,0 744.97,333.46 744.97,744.97l0 0z"/>
   <path class="fil3" d="M12929.27 4489.9l-2452.81 0 0 1209.22 2452.81 0c1309.79,0 2371.61,1061.89 2371.61,2371.65l0 4858.51c0,1309.79 -1061.81,2371.61 -2371.61,2371.61l-2452.81 -0.01 0 1209.22 2452.81 0c1974.41,0 3580.83,-1606.38 3580.83,-3580.87l0 -4858.5c0,-1974.5 -1606.38,-3580.83 -3580.83,-3580.83z"/>
   <path class="fil3" d="M10500 7391.1c-7.92,0 -15.63,0.57 -23.54,0.57l0 1209.22c7.83,-0.08 15.63,-0.57 23.54,-0.57 1049.14,0 1899.56,850.46 1899.56,1899.68 0,1049.14 -850.38,1899.56 -1899.56,1899.56 -7.92,0 -15.71,-0.49 -23.54,-0.57l0 1209.22c7.92,0.08 15.63,0.57 23.54,0.57 1714.21,0 3108.78,-1394.61 3108.78,-3108.78 0,-1714.21 -1394.57,-3108.9 -3108.78,-3108.9z"/>
  </g>
  <g id="_2705611193600">
  </g>
  <g id="_2705611193728">
  </g>
  <g id="_2705611190176">
  </g>
  <g id="_2705611189760">
  </g>
  <g id="_2705611190208">
  </g>
  <g id="_2705611190432">
  </g>
  <g id="_2705611191712">
  </g>
  <g id="_2705611189472">
  </g>
  <g id="_2705611188896">
  </g>
  <g id="_2705611188832">
  </g>
  <g id="_2705611188384">
  </g>
  <g id="_2705611188736">
  </g>
  <g id="_2705611186912">
  </g>
  <g id="_2705611187584">
  </g>
  <g id="_2705611185824">
  </g>
 </g>
</svg>
